<svg xmlns="http://www.w3.org/2000/svg" width="3213" height="1025" version="1.1" style=""><rect id="backgroundrect" width="100%" height="100%" x="0" y="0" fill="none" stroke="none"/><g class="currentLayer" style=""><title>Layer 1</title><path d="M 0 512.500 L 0 1025.001 1606.750 1024.750 L 3213.500 1024.500 3213.751 512.250 L 3214.002 0 1607.001 0 L 0 0 0 512.500 M 0.496 513 C 0.496 794.875, 0.610 910.187, 0.750 769.250 C 0.890 628.312, 0.890 397.687, 0.750 256.750 C 0.610 115.812, 0.496 231.125, 0.496 513 M 415.823 73.750 C 413.633 78.604, 408.900 89.390, 396.841 117 C 395.760 119.475, 394.261 122.850, 393.510 124.500 C 392.758 126.150, 388.918 134.925, 384.975 144 C 381.032 153.075, 376.950 162.412, 375.903 164.750 C 374.856 167.088, 373.072 171.137, 371.938 173.750 C 370.804 176.363, 369.260 179.850, 368.508 181.500 C 367.756 183.150, 364.830 189.900, 362.006 196.500 C 359.182 203.100, 356.477 209.400, 355.995 210.500 C 355.512 211.600, 353.701 215.875, 351.969 220 C 348.723 227.732, 345.889 234.269, 343.514 239.500 C 342.765 241.150, 340.955 245.425, 339.491 249 C 338.028 252.575, 336.005 257.300, 334.996 259.500 C 333.986 261.700, 331.073 268.450, 328.522 274.500 C 325.971 280.550, 323.293 286.625, 322.571 288 C 321.849 289.375, 320.691 292.300, 319.999 294.500 C 319.306 296.700, 318.410 298.950, 318.008 299.500 C 317.605 300.050, 316.968 301.850, 316.591 303.500 C 316.215 305.150, 315.071 308.750, 314.050 311.500 C 304.390 337.519, 301.849 367.162, 307.278 390.500 C 308.686 396.550, 310.637 403.742, 311.614 406.481 C 314.846 415.549, 325.276 434, 327.168 434 C 327.626 434, 328 434.528, 328 435.172 C 328 435.817, 330.345 439.080, 333.212 442.422 C 347.938 459.594, 362.448 469.951, 380.500 476.175 C 390.775 479.717, 408.837 482.931, 418.669 482.967 C 428.432 483.002, 447.693 479.625, 458.400 476.001 C 478.446 469.215, 494.170 457.508, 510.108 437.500 C 514.718 431.712, 524 416.946, 524 415.400 C 524 415.168, 524.887 413.071, 525.970 410.739 C 533.909 393.658, 536.759 368.707, 533.550 344.381 C 530.864 324.014, 524.619 305.058, 508.551 268.500 C 505.409 261.350, 502.246 254.150, 501.522 252.500 C 500.798 250.850, 498.118 244.550, 495.566 238.500 C 493.014 232.450, 490.297 226.150, 489.528 224.500 C 488.759 222.850, 486.716 218.125, 484.989 214 C 483.261 209.875, 481.255 205.150, 480.531 203.500 C 479.807 201.850, 476.194 193.525, 472.503 185 C 463.299 163.745, 462.079 160.947, 460.511 157.500 C 459.760 155.850, 455.045 145.050, 450.034 133.500 C 445.022 121.950, 440.297 111.150, 439.533 109.500 C 434.508 98.648, 424 74.029, 424 73.110 C 424 71.840, 420.399 68, 419.208 68 C 418.773 68, 417.249 70.588, 415.823 73.750 M 660.696 112.250 C 658.839 114.138, 658.116 117.152, 656.198 131 C 654.941 140.075, 653.017 153.575, 651.921 161 C 650.826 168.425, 644.108 215.675, 636.993 266 C 629.877 316.325, 623.382 362, 622.558 367.500 C 620.693 379.953, 618.335 396.425, 616.545 409.500 C 614.042 427.790, 609.797 457.280, 606.470 479.500 C 605.647 485, 604.308 494.450, 603.496 500.500 C 602.683 506.550, 601.369 515.990, 600.576 521.478 C 599.544 528.623, 599.439 531.824, 600.207 532.749 C 601.772 534.635, 730.692 534.117, 731.864 532.221 C 732.298 531.518, 733.892 521.843, 735.406 510.721 C 736.921 499.600, 738.788 486.450, 739.556 481.500 C 740.325 476.550, 742.321 462.600, 743.993 450.500 C 745.665 438.400, 747.488 425.575, 748.044 422 C 751.365 400.671, 760 337.664, 760 334.765 C 760 331.070, 763.328 326.870, 764.905 328.574 C 765.377 329.083, 769.173 338.050, 773.341 348.500 C 786.671 381.922, 801.481 418.336, 807.504 432.500 C 808.206 434.150, 810.928 440.900, 813.555 447.500 C 816.181 454.100, 822.250 469.175, 827.042 481 C 831.833 492.825, 838.304 508.800, 841.422 516.500 C 844.540 524.200, 848.020 531.288, 849.156 532.250 C 851.076 533.877, 855.712 534, 915 534 C 974.312 534, 978.919 533.877, 980.780 532.250 C 982.376 530.854, 983.105 527.969, 984.382 518 C 985.263 511.125, 986.891 499.200, 988 491.500 C 989.109 483.800, 990.889 471.200, 991.955 463.500 C 994.435 445.597, 996.550 430.839, 998.977 414.500 C 1000.040 407.350, 1001.800 395.200, 1002.889 387.500 C 1007.078 357.873, 1009.202 343.019, 1011.109 330 C 1012.196 322.575, 1013.279 314.925, 1013.515 313 C 1013.751 311.075, 1014.835 303.425, 1015.924 296 C 1017.013 288.575, 1018.851 275.750, 1020.009 267.500 C 1021.168 259.250, 1022.960 246.650, 1023.993 239.500 C 1025.025 232.350, 1026.833 219.750, 1028.011 211.500 C 1029.189 203.250, 1030.989 190.650, 1032.011 183.500 C 1033.033 176.350, 1034.824 163.750, 1035.992 155.500 C 1037.160 147.250, 1039.066 134.469, 1040.228 127.097 L 1042.340 113.694 1040.059 111.847 C 1037.896 110.095, 1034.565 110, 975.344 110 L 912.909 110 910.662 112.250 C 908.834 114.080, 908.081 116.836, 906.628 127 C 905.646 133.875, 903.958 145.575, 902.878 153 C 901.798 160.425, 900.724 168.075, 900.493 170 C 900.262 171.925, 899.373 178.225, 898.519 184 C 897.665 189.775, 894.487 212.050, 891.456 233.500 C 888.426 254.950, 885.535 275.200, 885.033 278.500 C 884.530 281.800, 883.164 291.475, 881.998 300 C 878.996 321.932, 878.672 323.500, 877.142 323.500 C 875.613 323.500, 873.129 319.061, 870.148 311 C 869.029 307.975, 864.648 296.500, 860.411 285.500 C 846.550 249.509, 844.310 243.653, 839.565 231 C 836.986 224.125, 834.193 216.946, 833.358 215.048 C 832.523 213.149, 828.206 202.124, 823.765 190.548 C 819.323 178.971, 814.472 166.350, 812.984 162.500 C 811.496 158.650, 807.766 148.975, 804.696 141 C 794.878 115.502, 794.004 113.532, 791.732 111.772 C 789.672 110.177, 784.627 110.043, 726.205 110.022 L 662.909 110 660.696 112.250 M 1087.338 110.999 C 1084.754 112.040, 1084.427 113.012, 1082.970 123.972 C 1082.351 128.631, 1081.699 132.681, 1081.523 132.972 C 1081.346 133.262, 1080.702 137.775, 1080.091 143 C 1079.480 148.225, 1078.308 156.775, 1077.485 162 C 1075.560 174.227, 1073.167 190.846, 1071.511 203.500 C 1069.932 215.565, 1067.543 232.114, 1065.519 245 C 1064.699 250.225, 1063.546 258.550, 1062.958 263.500 C 1062.370 268.450, 1061.509 274.300, 1061.044 276.500 C 1060.580 278.700, 1059.916 283.200, 1059.569 286.500 C 1059.221 289.800, 1058.031 298.800, 1056.924 306.500 C 1055.816 314.200, 1054.038 326.575, 1052.973 334 C 1051.908 341.425, 1050.137 353.575, 1049.037 361 C 1047.938 368.425, 1046.555 378.550, 1045.963 383.500 C 1045.372 388.450, 1044.509 394.300, 1044.044 396.500 C 1043.580 398.700, 1042.921 403.200, 1042.581 406.500 C 1042.241 409.800, 1041.095 418.350, 1040.035 425.500 C 1037.758 440.854, 1034.900 460.732, 1031.983 481.500 C 1030.824 489.750, 1029.033 502.350, 1028.003 509.500 C 1024.601 533.111, 1024.666 531.751, 1026.882 532.937 C 1028.255 533.671, 1067.533 534, 1153.934 534 C 1277.667 534, 1279.021 533.979, 1281 532 C 1282.100 530.900, 1283 529.420, 1283 528.712 C 1283 526.008, 1285.935 503.914, 1286.392 503.174 C 1286.657 502.746, 1287.385 497.470, 1288.010 491.448 C 1288.635 485.427, 1289.548 478.925, 1290.039 477 C 1290.530 475.075, 1291.634 467.476, 1292.492 460.113 C 1293.349 452.750, 1294.291 446.338, 1294.584 445.864 C 1295.569 444.271, 1297.582 423.466, 1296.993 420.969 L 1296.410 418.500 1240.168 418 C 1179.675 417.462, 1181.253 417.614, 1182.457 412.459 C 1182.719 411.337, 1183.403 406.162, 1183.976 400.959 C 1185.591 386.319, 1186.856 381.214, 1189.292 379.508 C 1191.141 378.213, 1198.511 378, 1241.568 378 C 1290.172 378, 1291.744 377.940, 1293.474 376.029 C 1294.771 374.595, 1295.614 370.806, 1296.566 362.117 C 1297.287 355.549, 1298.318 348.448, 1298.859 346.337 C 1299.399 344.227, 1300.128 339.125, 1300.478 335 C 1300.828 330.875, 1301.749 324.125, 1302.525 320 C 1303.301 315.875, 1304.417 307.937, 1305.006 302.361 C 1305.594 296.785, 1306.512 290.710, 1307.046 288.861 C 1307.579 287.012, 1308.307 281.745, 1308.663 277.155 C 1309.175 270.548, 1309.017 268.624, 1307.905 267.920 C 1307.132 267.431, 1284 267.017, 1256.500 267 C 1229 266.983, 1205.880 266.576, 1205.122 266.096 C 1204.054 265.420, 1203.898 263.677, 1204.429 258.362 C 1205.698 245.661, 1208.232 231.517, 1209.644 229.250 L 1211.046 227 1266.773 226.985 C 1297.423 226.976, 1323.106 226.585, 1323.847 226.116 C 1325.512 225.061, 1328.400 210.996, 1329.941 196.435 C 1330.578 190.421, 1331.524 183.887, 1332.043 181.916 C 1332.563 179.945, 1333.461 173.645, 1334.040 167.916 C 1334.619 162.187, 1335.519 155.887, 1336.040 153.916 C 1336.561 151.945, 1337.450 145.645, 1338.014 139.916 C 1338.579 134.187, 1339.707 126.486, 1340.521 122.803 C 1342.390 114.341, 1342.392 114.392, 1340 112 C 1338.021 110.021, 1336.710 110.001, 1213.750 110.063 C 1145.412 110.098, 1088.527 110.519, 1087.338 110.999 M 1379.511 112.250 C 1377.193 114.255, 1376.805 115.590, 1375.946 124.500 C 1375.415 130, 1374.333 137.650, 1373.540 141.500 C 1372.747 145.350, 1371.809 152.100, 1371.455 156.500 C 1371.102 160.900, 1370.201 167.425, 1369.453 171 C 1368.706 174.575, 1367.595 182.427, 1366.984 188.448 C 1366.373 194.470, 1365.620 199.805, 1365.312 200.304 C 1364.395 201.787, 1361.988 224.357, 1362.555 226.158 C 1362.842 227.069, 1363.789 228.089, 1364.661 228.423 C 1365.532 228.758, 1381.713 228.546, 1400.617 227.953 C 1419.522 227.360, 1435.442 227.155, 1435.995 227.497 C 1437.746 228.579, 1437.689 229.156, 1432.004 267.500 C 1430.944 274.650, 1429.805 283.200, 1429.472 286.500 C 1429.139 289.800, 1428.247 295.875, 1427.490 300 C 1426.734 304.125, 1425.838 310.425, 1425.500 314 C 1425.162 317.575, 1424.257 323.875, 1423.489 328 C 1422.722 332.125, 1421.821 338.650, 1421.488 342.500 C 1421.156 346.350, 1420.245 352.875, 1419.464 357 C 1418.184 363.767, 1416.527 375.568, 1413.847 397 C 1413.331 401.125, 1412.251 408.198, 1411.447 412.718 C 1410.643 417.239, 1409.517 425.564, 1408.946 431.218 C 1408.375 436.873, 1407.492 443.075, 1406.984 445 C 1406.477 446.925, 1405.582 453, 1404.996 458.500 C 1404.410 464, 1403.301 471.875, 1402.531 476 C 1401.761 480.125, 1400.841 486.650, 1400.486 490.500 C 1400.131 494.350, 1399.396 499.525, 1398.852 502 C 1398.309 504.475, 1397.230 512.125, 1396.456 519 C 1395.161 530.500, 1395.182 531.600, 1396.715 532.750 C 1399.147 534.574, 1531.285 534.574, 1532.779 532.750 C 1533.955 531.314, 1535.159 524.564, 1537.962 503.695 C 1539.055 495.552, 1540.153 488.562, 1540.401 488.160 C 1540.649 487.758, 1541.350 482.721, 1541.958 476.965 C 1542.567 471.209, 1543.699 463.125, 1544.475 459 C 1545.251 454.875, 1546.162 448.575, 1546.500 445 C 1546.838 441.425, 1547.743 435.125, 1548.511 431 C 1549.278 426.875, 1550.195 420.350, 1550.547 416.500 C 1550.899 412.650, 1551.800 406.350, 1552.549 402.500 C 1553.298 398.650, 1554.405 390.775, 1555.009 385 C 1555.613 379.225, 1556.509 372.925, 1557 371 C 1557.491 369.075, 1558.391 362.775, 1559 357 C 1559.609 351.225, 1560.531 344.887, 1561.048 342.916 C 1561.565 340.945, 1562.461 334.645, 1563.040 328.916 C 1563.619 323.187, 1564.508 316.925, 1565.016 315 C 1565.523 313.075, 1566.418 307, 1567.004 301.500 C 1567.590 296, 1568.699 288.125, 1569.469 284 C 1570.239 279.875, 1571.159 273.350, 1571.514 269.500 C 1571.869 265.650, 1572.605 260.475, 1573.150 258 C 1573.694 255.525, 1574.739 248.381, 1575.472 242.126 C 1576.490 233.438, 1577.261 230.295, 1578.736 228.820 C 1580.611 226.944, 1581.645 226.920, 1614.721 227.962 C 1636.889 228.661, 1649.669 228.696, 1651.334 228.063 C 1653.185 227.359, 1654.022 226.180, 1654.360 223.795 C 1654.617 221.983, 1655.291 217.125, 1655.859 213 C 1656.426 208.875, 1657.351 202.350, 1657.914 198.500 C 1660.135 183.309, 1661.032 176.940, 1662.915 162.997 C 1663.992 155.020, 1665.120 147.820, 1665.421 146.997 C 1665.722 146.174, 1666.702 139.650, 1667.599 132.500 C 1668.496 125.350, 1669.450 117.819, 1669.719 115.765 C 1670.154 112.433, 1669.919 111.920, 1667.539 111.015 C 1665.779 110.346, 1616.684 110, 1523.491 110 L 1382.112 110 1379.511 112.250 M 1775.385 113.695 C 1773.523 115.728, 1772 117.799, 1772 118.297 C 1772 119.149, 1757.940 147.761, 1755.930 151 C 1755.418 151.825, 1754.550 153.625, 1754.002 155 C 1753.453 156.375, 1752.553 158.175, 1752.002 159 C 1751.450 159.825, 1750.550 161.625, 1750.002 163 C 1749.453 164.375, 1748.570 166.175, 1748.039 167 C 1747.508 167.825, 1744.560 173.675, 1741.488 180 C 1738.416 186.325, 1735.498 192.175, 1735.003 193 C 1733.739 195.108, 1731.297 200.042, 1730.053 203 C 1729.474 204.375, 1728.585 206.175, 1728.075 207 C 1727.566 207.825, 1701.883 258.900, 1671.002 320.500 C 1640.121 382.100, 1614.475 433.175, 1614.011 434 C 1613.546 434.825, 1604.320 453.275, 1593.509 475 C 1582.697 496.725, 1571.876 518.298, 1569.460 522.939 C 1566.164 529.275, 1565.341 531.705, 1566.157 532.689 C 1567.720 534.572, 1710.477 534.631, 1711.683 532.750 C 1712.123 532.063, 1712.992 530.150, 1713.613 528.500 C 1715.314 523.980, 1720.856 510.216, 1723.477 504 C 1724.753 500.975, 1727.071 495.187, 1728.629 491.138 C 1730.679 485.809, 1732.106 483.530, 1733.796 482.888 C 1735.080 482.399, 1759.415 482, 1787.874 482 C 1829.515 482, 1839.975 482.261, 1841.448 483.338 C 1843.048 484.508, 1843.454 487.500, 1844.674 507.088 C 1845.442 519.415, 1846.287 530.513, 1846.554 531.750 L 1847.038 534 1915.897 534 C 1992.512 534, 1987.983 534.430, 1986.109 527.326 C 1985.553 525.222, 1984.604 518.550, 1983.998 512.500 C 1983.393 506.450, 1982.271 498.125, 1981.506 494 C 1980.740 489.875, 1979.838 483.125, 1979.500 479 C 1979.162 474.875, 1978.258 468.125, 1977.491 464 C 1976.724 459.875, 1975.802 452.900, 1975.444 448.500 C 1975.085 444.100, 1974.203 437.575, 1973.484 434 C 1972.764 430.425, 1971.882 423.900, 1971.524 419.500 C 1971.165 415.100, 1970.236 408.125, 1969.459 404 C 1968.682 399.875, 1967.562 391.581, 1966.971 385.570 C 1966.379 379.558, 1965.696 374.318, 1965.453 373.924 C 1965.210 373.530, 1964.106 365.465, 1963 356 C 1961.894 346.535, 1960.795 338.478, 1960.558 338.094 C 1960.321 337.710, 1959.619 332.470, 1958.998 326.448 C 1958.377 320.427, 1957.245 311.900, 1956.482 307.500 C 1955.718 303.100, 1954.813 296.350, 1954.470 292.500 C 1954.127 288.650, 1953.246 282.125, 1952.512 278 C 1951.778 273.875, 1950.884 266.900, 1950.525 262.500 C 1950.165 258.100, 1949.236 251.125, 1948.460 247 C 1947.684 242.875, 1946.585 234.813, 1946.018 229.084 C 1945.451 223.355, 1944.572 217.055, 1944.064 215.084 C 1943.556 213.113, 1942.846 207.900, 1942.487 203.500 C 1942.128 199.100, 1940.971 190.379, 1939.917 184.120 C 1938.863 177.862, 1937.998 171.337, 1937.996 169.620 C 1937.994 167.904, 1937.129 161.100, 1936.073 154.500 C 1935.018 147.900, 1933.868 139.350, 1933.518 135.500 C 1932.396 123.166, 1930.131 113.657, 1927.861 111.750 C 1925.919 110.118, 1920.818 110, 1852.274 110 L 1778.770 110 1775.385 113.695 M 2079.064 112.432 C 2077.233 114.381, 2076.525 116.912, 2075.497 125.182 C 2074.792 130.857, 2073.463 140.450, 2072.543 146.500 C 2067.797 177.725, 2067.041 183.010, 2066.466 189 C 2066.122 192.575, 2065.441 197.075, 2064.951 199 C 2064.462 200.925, 2063.576 207, 2062.983 212.500 C 2062.390 218, 2061.290 225.650, 2060.538 229.500 C 2059.786 233.350, 2058.872 239.875, 2058.506 244 C 2058.141 248.125, 2057.443 253.075, 2056.955 255 C 2056.467 256.925, 2055.366 264.524, 2054.508 271.887 C 2053.651 279.250, 2052.736 285.617, 2052.477 286.038 C 2052.217 286.458, 2051.353 292.369, 2050.557 299.174 C 2049.761 305.979, 2048.676 313.561, 2048.145 316.023 C 2047.615 318.485, 2046.894 323.425, 2046.545 327 C 2046.196 330.575, 2045.057 339.125, 2044.016 346 C 2042.974 352.875, 2041.159 365.250, 2039.983 373.500 C 2038.807 381.750, 2036.994 394.125, 2035.955 401 C 2034.916 407.875, 2033.796 416.200, 2033.466 419.500 C 2033.136 422.800, 2032.242 428.875, 2031.480 433 C 2030.717 437.125, 2029.800 443.650, 2029.441 447.500 C 2029.083 451.350, 2028.201 457.425, 2027.481 461 C 2026.762 464.575, 2025.880 470.650, 2025.521 474.500 C 2025.163 478.350, 2024.242 484.875, 2023.476 489 C 2022.710 493.125, 2021.571 501, 2020.945 506.500 C 2020.319 512, 2019.647 516.761, 2019.450 517.079 C 2019.254 517.398, 2018.606 520.707, 2018.011 524.434 C 2017.203 529.487, 2017.223 531.563, 2018.087 532.604 C 2019.057 533.773, 2030.108 534, 2086.057 534 C 2125.145 534, 2153.892 533.611, 2155.332 533.064 C 2157.386 532.283, 2157.901 531.244, 2158.436 526.814 C 2158.789 523.891, 2159.961 515.425, 2161.041 508 C 2163.948 488.007, 2166.631 469.360, 2169.026 452.500 C 2170.199 444.250, 2171.836 433.225, 2172.665 428 C 2173.495 422.775, 2174.778 413.550, 2175.516 407.500 C 2176.255 401.450, 2177.330 394.475, 2177.905 392 C 2178.480 389.525, 2178.962 386.107, 2178.976 384.405 C 2179.028 377.783, 2177.168 378, 2233.806 378 L 2284.954 378 2286.317 375.750 C 2287.066 374.512, 2288.654 366.750, 2289.844 358.500 C 2295.567 318.833, 2301.971 272.616, 2301.992 270.821 C 2301.996 270.448, 2301.293 269.436, 2300.429 268.571 C 2299.042 267.185, 2292.951 267, 2248.551 267 C 2205.561 267, 2198.068 266.787, 2197.028 265.533 C 2195.832 264.093, 2195.958 262.912, 2200.577 232.350 C 2200.839 230.618, 2201.662 228.695, 2202.407 228.077 C 2203.366 227.281, 2220.111 226.887, 2259.845 226.727 C 2310.343 226.523, 2316.092 226.336, 2317.572 224.857 C 2318.699 223.730, 2319.779 219.020, 2321.012 209.857 C 2323.356 192.436, 2325.699 175.815, 2327.476 164 C 2331.984 134.022, 2334.204 115.949, 2333.650 113.743 C 2333.288 112.301, 2332.063 110.982, 2330.761 110.633 C 2329.517 110.300, 2272.891 110.021, 2204.924 110.014 L 2081.349 110 2079.064 112.432 M 2375.262 112.394 C 2373.760 114.303, 2372.094 123.778, 2367.043 159.144 C 2359.649 210.908, 2357.551 225.654, 2355.540 240 C 2353.332 255.751, 2341.129 341.107, 2339.528 352 C 2338.760 357.225, 2337.172 368.250, 2336 376.500 C 2334.827 384.750, 2333.018 397.350, 2331.979 404.500 C 2328.519 428.314, 2326.952 439.403, 2325.477 450.500 C 2324.673 456.550, 2323.784 462.625, 2323.500 464 C 2323.216 465.375, 2322.328 471.450, 2321.527 477.500 C 2319.776 490.708, 2317.630 505.632, 2315.359 520.397 C 2313.743 530.903, 2313.749 531.344, 2315.533 532.647 C 2318.253 534.637, 2449.727 534.651, 2452.447 532.662 C 2454.205 531.377, 2459.472 497.012, 2476.071 378.500 C 2480.727 345.261, 2482.069 335.791, 2487.974 294.500 C 2491.356 270.850, 2496.791 232.600, 2500.052 209.500 C 2506.108 166.596, 2507.846 154.482, 2510.600 136 C 2511.460 130.225, 2512.411 122.474, 2512.714 118.776 C 2513.254 112.182, 2513.213 112.031, 2510.567 111.026 C 2508.824 110.363, 2484.751 110, 2442.507 110 L 2377.145 110 2375.262 112.394 M 2604.762 111.073 C 2603.807 111.630, 2602.573 112.929, 2602.021 113.960 C 2601.191 115.512, 2587.627 161.372, 2585.002 171.500 C 2584.575 173.150, 2581.451 183.950, 2578.060 195.500 C 2574.669 207.050, 2571.031 219.650, 2569.977 223.500 C 2568.922 227.350, 2563.745 245.350, 2558.473 263.500 C 2553.200 281.650, 2548.064 299.425, 2547.059 303 C 2545.192 309.645, 2526.252 375.257, 2522.812 387 C 2521.764 390.575, 2519.838 397.325, 2518.531 402 C 2517.224 406.675, 2514.587 415.900, 2512.671 422.500 C 2507.639 439.835, 2490.539 498.946, 2485.478 516.500 C 2482.662 526.269, 2481.493 531.849, 2482.126 532.500 C 2482.750 533.141, 2506.421 533.597, 2548.028 533.771 C 2622.590 534.083, 2615.631 535.065, 2618.304 523.856 C 2619.138 520.360, 2620.794 513.900, 2621.983 509.500 C 2623.173 505.100, 2625.239 497.337, 2626.573 492.250 C 2627.908 487.163, 2630.092 478.837, 2631.427 473.750 C 2632.761 468.663, 2634.755 461.125, 2635.857 457 C 2636.959 452.875, 2639.411 443.650, 2641.306 436.500 C 2643.201 429.350, 2646.190 418.100, 2647.947 411.500 C 2649.704 404.900, 2652.010 396.238, 2653.071 392.250 C 2654.132 388.262, 2655.930 381.512, 2657.066 377.250 C 2658.203 372.988, 2661.099 361.842, 2663.503 352.482 C 2668.546 332.843, 2669.629 329.653, 2670.971 330.482 C 2672.508 331.432, 2673.693 337.379, 2675.457 353 C 2676.357 360.975, 2677.947 374.475, 2678.990 383 C 2680.034 391.525, 2681.846 406.600, 2683.018 416.500 C 2684.190 426.400, 2685.822 439.900, 2686.644 446.500 C 2687.465 453.100, 2688.759 463.900, 2689.519 470.500 C 2695.821 525.252, 2696.824 531.835, 2699.047 533.025 C 2700.151 533.616, 2718.181 534, 2744.823 534 C 2795.417 534, 2791.033 534.912, 2795.283 523.500 C 2796.717 519.650, 2799.063 513.350, 2800.497 509.500 C 2801.932 505.650, 2803.508 501.600, 2804 500.500 C 2805.739 496.612, 2810 485.333, 2810 484.617 C 2810 484.217, 2810.821 482.002, 2811.824 479.695 C 2812.827 477.388, 2814.900 472.125, 2816.431 468 C 2817.961 463.875, 2820.038 458.475, 2821.046 456 C 2822.055 453.525, 2824.053 448.350, 2825.488 444.500 C 2828.185 437.260, 2829.934 432.719, 2833 425 C 2833.983 422.525, 2836.903 414.875, 2839.489 408 C 2842.076 401.125, 2845.049 393.575, 2846.096 391.223 C 2847.143 388.871, 2848 386.464, 2848 385.874 C 2848 385.285, 2848.644 383.384, 2849.430 381.651 C 2851.619 376.828, 2856 365.439, 2856 364.573 C 2856 364.149, 2856.644 362.384, 2857.430 360.651 C 2859.701 355.648, 2864 344.425, 2864 343.501 C 2864 343.038, 2865.429 339.559, 2867.176 335.769 C 2869.784 330.111, 2870.525 329.186, 2871.316 330.601 C 2871.921 331.680, 2872.204 369.328, 2872.077 431.527 C 2871.892 522.162, 2872.016 530.873, 2873.509 532.366 C 2874.985 533.842, 2880.971 534, 2935.371 534 C 2980.883 534, 2995.893 533.707, 2996.800 532.800 C 2998.397 531.203, 2998.560 114.915, 2996.965 111.934 C 2995.956 110.050, 2994.113 110, 2925.715 110.004 C 2857.677 110.007, 2855.400 110.068, 2852.277 111.973 C 2850.406 113.113, 2848.773 115.105, 2848.385 116.719 C 2848.017 118.249, 2846.041 123.775, 2843.994 129 C 2841.948 134.225, 2838.143 144.125, 2835.541 151 C 2832.938 157.875, 2829.951 165.425, 2828.904 167.777 C 2827.857 170.129, 2827 172.536, 2827 173.126 C 2827 173.715, 2826.351 175.616, 2825.557 177.349 C 2824.763 179.082, 2822.496 184.775, 2820.518 190 C 2818.540 195.225, 2816.538 200.400, 2816.070 201.500 C 2815.602 202.600, 2813.800 207.325, 2812.064 212 C 2810.328 216.675, 2808.491 221.400, 2807.981 222.500 C 2807.106 224.388, 2806.482 226.056, 2802.559 237 C 2801.672 239.475, 2800.532 242.400, 2800.026 243.500 C 2799.519 244.600, 2797.934 248.650, 2796.503 252.500 C 2795.071 256.350, 2792.158 264, 2790.028 269.500 C 2783.430 286.543, 2781.104 292.697, 2775.971 306.701 C 2775.326 308.462, 2773.728 310.604, 2772.420 311.460 C 2770.171 312.934, 2770.018 312.896, 2769.585 310.759 C 2769.334 309.517, 2768.880 304.677, 2768.576 300.005 C 2768.273 295.333, 2767.356 286.783, 2766.539 281.005 C 2765.123 270.987, 2763.434 256.922, 2760.476 230.500 C 2759.737 223.900, 2758.414 212.650, 2757.536 205.500 C 2755.544 189.276, 2752.521 164.531, 2750.450 147.500 C 2749.580 140.350, 2748.426 130, 2747.884 124.500 C 2747.024 115.761, 2746.583 114.216, 2744.394 112.250 L 2741.888 110 2674.194 110.030 C 2630.378 110.050, 2605.887 110.418, 2604.762 111.073 M 3043.500 110.732 C 3040.602 111.456, 3040.032 112.830, 3040.015 119.143 C 3040.004 123.376, 3040.395 124.938, 3041.582 125.393 C 3042.452 125.727, 3047.579 126, 3052.975 126 C 3060.999 126, 3062.897 126.288, 3063.393 127.582 C 3063.727 128.452, 3064.045 141.839, 3064.100 157.332 C 3064.155 172.824, 3064.511 186.625, 3064.892 188 C 3065.549 190.369, 3066.001 190.513, 3073.542 190.756 C 3077.919 190.896, 3082.175 190.576, 3083 190.043 C 3084.268 189.225, 3084.545 184.396, 3084.793 158.838 C 3084.984 139.087, 3085.460 128.150, 3086.165 127.301 C 3086.909 126.405, 3090.118 126, 3096.467 126 C 3107.799 126, 3109.628 124.754, 3108.490 117.812 C 3107.155 109.676, 3108.494 109.985, 3075.095 110.116 C 3058.818 110.180, 3044.600 110.457, 3043.500 110.732 M 3119.557 112.223 C 3118.217 114.135, 3118 119.513, 3118 150.788 C 3118 173.928, 3118.376 187.834, 3119.035 189.066 C 3119.905 190.691, 3121.172 191, 3126.976 191 C 3131.403 191, 3134.172 190.551, 3134.691 189.750 C 3135.136 189.063, 3135.500 176.935, 3135.500 162.800 C 3135.500 134.903, 3136.291 130.337, 3139.466 139.898 C 3140.394 142.691, 3141.517 145.202, 3141.963 145.477 C 3142.409 145.753, 3143.079 147.607, 3143.452 149.597 C 3143.826 151.588, 3144.945 155.080, 3145.940 157.358 C 3146.935 159.636, 3148.299 163.075, 3148.971 165 C 3149.643 166.925, 3151.297 171.425, 3152.647 175 C 3153.996 178.575, 3155.514 182.800, 3156.020 184.388 C 3157.501 189.039, 3159.893 191, 3164.087 191 C 3168.122 191, 3170.986 188.250, 3172.420 183 C 3172.796 181.625, 3173.919 178.475, 3174.916 176 C 3177.140 170.479, 3178.189 167.562, 3183.107 153.226 C 3187.415 140.670, 3190.929 134.657, 3192.178 137.705 C 3192.582 138.692, 3192.877 150.412, 3192.833 163.749 C 3192.774 181.735, 3193.075 188.385, 3193.999 189.499 C 3194.886 190.567, 3197.227 191, 3202.122 191 L 3209 191 3209 151.117 L 3209 111.233 3206.750 110.630 C 3203.174 109.672, 3187.380 109.905, 3184.613 110.957 C 3181.939 111.974, 3179.567 115.663, 3176.869 123 C 3175.959 125.475, 3174.022 130.650, 3172.564 134.500 C 3171.107 138.350, 3169.272 143.525, 3168.488 146 C 3167.097 150.387, 3163.847 153.642, 3161.998 152.499 C 3161.492 152.186, 3160.785 150.258, 3160.426 148.215 C 3160.068 146.172, 3159.195 143.571, 3158.486 142.435 C 3157.776 141.299, 3156.726 138.824, 3156.152 136.935 C 3154.685 132.106, 3150.634 121.351, 3148.226 115.892 C 3145.778 110.344, 3144.879 110.032, 3131.307 110.014 C 3121.899 110.001, 3120.993 110.171, 3119.557 112.223 M 1825.921 248.750 C 1823.790 254.438, 1815.800 274.617, 1814.537 277.500 C 1813.814 279.150, 1812.887 281.625, 1812.477 283 C 1812.066 284.375, 1811.116 286.388, 1810.365 287.473 C 1809.614 288.557, 1809 290.139, 1809 290.987 C 1809 291.836, 1808.100 294.209, 1807 296.261 C 1805.900 298.314, 1805 300.564, 1805 301.261 C 1805 301.959, 1804.100 304.209, 1803 306.261 C 1801.900 308.314, 1800.996 310.557, 1800.991 311.246 C 1800.986 311.936, 1799.875 314.750, 1798.522 317.500 C 1797.169 320.250, 1796.048 323.064, 1796.031 323.754 C 1796.014 324.443, 1795.100 326.686, 1794 328.739 C 1792.900 330.791, 1792 333.083, 1792 333.831 C 1792 334.579, 1791.331 336.386, 1790.514 337.846 C 1789.696 339.306, 1788.393 342.300, 1787.618 344.500 C 1786.844 346.700, 1785.302 350.750, 1784.193 353.500 C 1778.206 368.350, 1778.100 368.700, 1779.258 369.858 C 1780.060 370.660, 1788.794 371, 1808.593 371 C 1834.520 371, 1836.840 370.859, 1837.459 369.250 C 1838.217 367.280, 1837.463 347.053, 1835.904 327.500 C 1835.334 320.350, 1834.298 299.498, 1833.602 281.163 C 1832.589 254.499, 1832.052 247.646, 1830.918 246.928 C 1828.461 245.373, 1826.984 245.911, 1825.921 248.750 M 182.693 315.787 C 181.804 316.769, 180.350 319.357, 179.462 321.537 C 178.574 323.716, 176.982 327.413, 175.924 329.750 C 174.866 332.087, 173.072 336.137, 171.938 338.750 C 170.804 341.363, 169.263 344.850, 168.514 346.500 C 167.765 348.150, 165.937 352.425, 164.451 356 C 162.965 359.575, 160.840 364.525, 159.729 367 C 158.618 369.475, 156.874 373.413, 155.854 375.750 C 154.834 378.087, 153.166 381.913, 152.146 384.250 C 151.126 386.587, 149.382 390.525, 148.271 393 C 147.160 395.475, 145.032 400.425, 143.542 404 C 142.052 407.575, 139.905 412.525, 138.770 415 C 137.636 417.475, 135.935 421.300, 134.990 423.500 C 134.044 425.700, 132.567 429.075, 131.705 431 C 130.844 432.925, 127.816 439.900, 124.975 446.500 C 122.134 453.100, 118.953 460.413, 117.905 462.750 C 116.857 465.087, 115.072 469.137, 113.938 471.750 C 112.804 474.363, 111.260 477.850, 110.508 479.500 C 109.756 481.150, 106.816 487.900, 103.975 494.500 C 101.134 501.100, 97.953 508.413, 96.905 510.750 C 94.108 516.990, 91.612 522.794, 89.057 529 C 86.750 534.603, 84.870 538.888, 81.109 547.110 C 79.949 549.645, 79 552.035, 79 552.421 C 79 553.105, 74.715 562.922, 73.042 566.071 C 72.583 566.934, 70.977 570.759, 69.474 574.571 C 66.894 581.111, 63.628 588.737, 60.512 595.500 C 59.752 597.150, 57.710 601.875, 55.975 606 C 54.240 610.125, 51.961 615.413, 50.910 617.750 C 49.860 620.087, 48.072 624.138, 46.938 626.750 C 45.804 629.362, 44.252 632.850, 43.489 634.500 C 42.726 636.150, 40.911 640.425, 39.455 644 C 36.691 650.790, 35.871 652.708, 31.597 662.371 C 30.169 665.600, 29 668.662, 29 669.176 C 29 669.689, 28.133 672.013, 27.073 674.340 C 26.013 676.666, 24.826 679.904, 24.435 681.535 C 24.044 683.166, 23.408 684.950, 23.021 685.500 C 22.395 686.392, 20.995 690.741, 13.925 713.771 C 12.866 717.220, 12 721.101, 12 722.395 C 12 723.690, 11.365 726.548, 10.589 728.747 C 9.814 730.946, 8.674 736.965, 8.057 742.122 C 6.779 752.809, 6.247 755, 4.933 755 C 4.387 755, 4 763.256, 4 774.893 C 4 790.961, 4.267 794.889, 5.391 795.320 C 6.301 795.669, 7.036 798.386, 7.514 803.177 C 7.917 807.205, 8.911 812.975, 9.723 816 C 10.535 819.025, 11.785 823.975, 12.500 827 C 15.081 837.913, 24.106 859.317, 30.210 869 C 31.423 870.925, 33.025 873.616, 33.768 874.981 C 39.303 885.132, 57.694 906.371, 73.618 921 C 93.933 939.663, 124.937 952.883, 162.750 959.007 C 166.738 959.652, 170 960.590, 170 961.090 C 170 962.280, 196.709 962.279, 197.445 961.090 C 197.754 960.589, 201.268 959.651, 205.254 959.006 C 233.461 954.438, 258.200 945.866, 278 933.798 C 284.437 929.875, 299.425 917.271, 306.500 909.832 C 336.119 878.688, 350.661 852.107, 359.476 813 C 363.688 794.311, 363.694 756.412, 359.488 735.500 C 356.814 722.212, 350.838 699.946, 347.542 691 C 346.833 689.075, 345.313 684.905, 344.164 681.734 C 338.904 667.216, 334.745 656.812, 330.278 647 C 326.944 639.679, 325.964 637.414, 320.536 624.500 C 317.994 618.450, 315.289 612.150, 314.527 610.500 C 313.764 608.850, 310.830 602.100, 308.006 595.500 C 305.182 588.900, 302.477 582.600, 301.995 581.500 C 301.512 580.400, 299.712 576.125, 297.994 572 C 296.276 567.875, 294.244 563.150, 293.479 561.500 C 292.713 559.850, 290.006 553.550, 287.463 547.500 C 284.920 541.450, 282.014 534.700, 281.004 532.500 C 279.995 530.300, 277.961 525.575, 276.484 522 C 275.007 518.425, 272.944 513.587, 271.899 511.250 C 270.855 508.913, 269.072 504.863, 267.938 502.250 C 266.804 499.637, 265.260 496.150, 264.508 494.500 C 263.756 492.850, 260.816 486.100, 257.975 479.500 C 253.148 468.285, 250.754 462.822, 247.457 455.500 C 242.103 443.612, 241 441.056, 241 440.540 C 241 440.219, 239.200 436.097, 237 431.379 C 234.800 426.661, 233 422.558, 233 422.260 C 233 421.963, 232.051 419.645, 230.891 417.110 C 226.333 407.144, 224.994 404.109, 220.478 393.500 C 215.175 381.041, 212.490 374.847, 210.508 370.500 C 209.756 368.850, 206.816 362.100, 203.975 355.500 C 199.266 344.559, 197.384 340.261, 193.466 331.500 C 192.728 329.850, 191.220 326.475, 190.114 324 C 189.008 321.525, 187.641 318.262, 187.077 316.750 C 185.878 313.540, 184.917 313.329, 182.693 315.787 M 1174 763.659 C 1164.764 765.088, 1154.043 767.406, 1151.500 768.523 C 1149.850 769.248, 1147.375 770.164, 1146 770.558 C 1144.625 770.952, 1142.427 772.113, 1141.115 773.138 C 1139.803 774.162, 1138.364 775, 1137.915 775 C 1134.984 775, 1123.302 784.974, 1116.834 793 C 1097.506 816.981, 1091.900 859.272, 1103.511 893.500 C 1115.287 928.215, 1144.660 949, 1181.940 949 C 1227.106 949, 1259.623 917.345, 1264.154 868.964 C 1267.188 836.568, 1259.596 807.935, 1243.210 789.982 C 1237.023 783.203, 1227.150 775, 1225.178 775 C 1224.678 775, 1223.197 774.199, 1221.885 773.219 C 1218.327 770.562, 1209.090 767.079, 1202.672 765.975 C 1199.552 765.439, 1194.412 764.553, 1191.250 764.006 C 1185.601 763.029, 1178.938 762.895, 1174 763.659 M 807 766.704 C 803.005 768.157, 799.792 773.059, 794.434 785.874 C 791.300 793.368, 787.693 801.975, 786.417 805 C 784.286 810.052, 778.832 823.192, 759.023 871 C 755.034 880.625, 750.530 891.425, 749.012 895 C 736.826 923.705, 732.902 934.269, 733.482 936.806 C 734.796 942.548, 739.521 946, 746.066 946 C 752.714 946, 755.140 942.507, 765.467 918.063 C 770.465 906.234, 775.195 896.431, 776.152 895.919 C 777.103 895.410, 793.687 895, 813.323 895 C 845.651 895, 848.957 895.154, 850.807 896.750 C 851.923 897.712, 856.286 906.825, 860.504 917 C 869.761 939.332, 871.972 943.332, 875.978 944.991 C 884.514 948.526, 894.297 941.322, 892.610 932.744 C 892.086 930.082, 881.549 903.902, 872.992 884 C 871.928 881.525, 866.290 868.025, 860.464 854 C 850.400 829.773, 844.225 815.009, 839.972 805 C 838.920 802.525, 835.569 794.498, 832.525 787.162 C 826.348 772.278, 825.321 770.511, 821.305 767.863 C 818.579 766.065, 810.544 765.414, 807 766.704 M 1379.364 767.170 C 1374.665 769.445, 1374.712 768.504, 1374.940 855.889 C 1375.059 901.203, 1375.551 939.319, 1376.035 940.591 C 1377.115 943.433, 1381.845 946, 1386 946 C 1390.240 946, 1394.892 943.415, 1396.028 940.426 C 1397.517 936.510, 1399.328 936.581, 1407.163 940.861 C 1426.943 951.668, 1453.576 950.499, 1469.941 938.106 C 1481.509 929.345, 1489.604 915.795, 1492.704 900 C 1496.384 881.254, 1495.092 860.691, 1489.311 846 C 1479.253 820.437, 1456.545 807.271, 1428.817 810.926 C 1419.717 812.125, 1415.402 813.714, 1403.015 820.427 C 1399.763 822.190, 1398.324 822.534, 1397.780 821.679 C 1397.368 821.031, 1397.024 809.553, 1397.015 796.173 L 1397 771.846 1394.077 768.923 C 1391.624 766.470, 1390.377 766.011, 1386.327 766.068 C 1383.672 766.105, 1380.539 766.601, 1379.364 767.170 M 1519.500 767.403 C 1515.250 769.278, 1513.267 771.857, 1512.107 777.015 C 1510.727 783.154, 1512.321 789.064, 1516.317 792.625 C 1518.759 794.801, 1520.637 795.481, 1524.968 795.757 C 1531.801 796.193, 1535.994 793.892, 1538.960 788.079 C 1541.591 782.922, 1541.521 778.466, 1538.734 773.604 C 1534.884 766.889, 1526.666 764.239, 1519.500 767.403 M 1761.306 767.498 C 1760.129 768.322, 1758.387 771.039, 1757.433 773.535 C 1755.820 777.759, 1755.748 783.499, 1756.393 856.287 C 1756.774 899.304, 1757.321 935.856, 1757.610 937.513 C 1757.898 939.170, 1758.978 941.645, 1760.010 943.013 C 1761.651 945.189, 1762.654 945.500, 1768.025 945.500 C 1773.641 945.500, 1774.391 945.237, 1776.832 942.414 C 1778.299 940.717, 1779.994 938.474, 1780.599 937.430 C 1781.655 935.606, 1781.830 935.633, 1785.099 938.122 C 1796.628 946.901, 1816.683 950.364, 1833.458 946.474 C 1853.937 941.724, 1869.764 924.219, 1875.023 900.500 C 1876.729 892.808, 1877.302 872.769, 1876.081 863.500 C 1873.811 846.262, 1865.308 830.243, 1853.718 821.367 C 1846.271 815.664, 1840.549 813.185, 1830.561 811.333 C 1822.939 809.921, 1820.160 809.848, 1811.699 810.841 C 1801.034 812.092, 1795.717 814.002, 1787.247 819.624 C 1784.286 821.589, 1781.557 822.892, 1781.182 822.518 C 1780.807 822.144, 1780.275 810.587, 1780 796.835 L 1779.500 771.832 1776.234 768.916 C 1773.596 766.560, 1772.054 766, 1768.207 766 C 1765.588 766, 1762.482 766.674, 1761.306 767.498 M 2156.500 767.347 C 2148.778 770.898, 2146.213 780.404, 2150.616 789.153 C 2152.933 793.758, 2158.295 796.306, 2164.568 795.786 C 2182.624 794.289, 2182.222 767.723, 2164.122 766.325 C 2161.536 766.125, 2158.179 766.575, 2156.500 767.347 M 1166.500 787.951 C 1162.434 789.123, 1155.376 792.092, 1150.372 794.736 C 1145.676 797.216, 1135.735 807.710, 1132.951 813.125 C 1122.381 833.683, 1120.642 864.151, 1128.679 887.950 C 1134.324 904.667, 1144.978 915.749, 1161.617 922.214 C 1166.778 924.220, 1169.279 924.500, 1182 924.500 C 1195.092 924.500, 1197.083 924.262, 1202.500 922.048 C 1209.586 919.153, 1219.706 912.326, 1223.374 907.967 C 1228.266 902.153, 1232.763 893.301, 1235.603 883.896 C 1238.287 875.003, 1238.439 873.483, 1238.446 855.500 C 1238.451 838.488, 1238.211 835.715, 1236.147 829 C 1230.291 809.942, 1221.805 799.059, 1207.220 791.901 L 1198.500 787.622 1184 787.354 C 1176.025 787.206, 1168.150 787.475, 1166.500 787.951 M 810.096 807.182 C 809.589 808.457, 806.463 816.475, 803.149 825 C 799.836 833.525, 794.590 846.977, 791.492 854.894 C 786.597 867.401, 786.047 869.476, 787.294 870.723 C 789.492 872.921, 836.610 872.819, 838.817 870.611 C 840.194 869.235, 839.571 867.116, 832.698 849.790 C 828.490 839.180, 822.865 824.875, 820.199 818 C 816.246 807.805, 814.953 805.441, 813.186 805.182 C 811.680 804.960, 810.738 805.570, 810.096 807.182 M 2378.901 811.486 C 2364.280 814.687, 2349.347 825.659, 2341.903 838.669 C 2329.148 860.963, 2329.347 896.491, 2342.360 920 C 2359.901 951.690, 2410.050 957.816, 2436.612 931.513 C 2443.521 924.672, 2447 918.687, 2447 913.643 C 2447 908.601, 2441.547 904, 2435.571 904 C 2430.816 904, 2429.132 905.235, 2421.500 914.321 C 2416.375 920.422, 2410.342 923.776, 2401.884 925.227 C 2393.087 926.735, 2381.715 925.089, 2375.412 921.396 C 2367.475 916.744, 2361.196 907.224, 2358.531 895.802 C 2357.243 890.283, 2357.247 889.273, 2358.558 887.271 L 2360.046 885 2402.055 885 C 2448.491 885, 2449.568 884.872, 2451.968 879.078 C 2453.506 875.364, 2452.826 864.162, 2450.445 854 C 2448.803 846.996, 2443.665 836.050, 2439.385 830.438 C 2436.111 826.146, 2426.036 818.262, 2420 815.269 C 2410.237 810.428, 2391.579 808.710, 2378.901 811.486 M 956 811.880 C 951.482 812.873, 944.990 816.222, 937.646 821.349 C 932.020 825.276, 931.737 825.361, 930.396 823.527 C 929.628 822.477, 929 820.888, 929 819.996 C 929 819.104, 927.620 817.052, 925.934 815.437 C 923.392 813.002, 922.029 812.500, 917.954 812.500 C 913.736 812.500, 912.575 812.964, 909.769 815.769 L 906.500 819.037 906.197 876.269 C 905.993 914.857, 906.244 934.698, 906.965 937.176 C 907.554 939.198, 909.470 942.059, 911.223 943.534 C 913.974 945.849, 915.076 946.151, 919.294 945.746 C 922.845 945.405, 924.904 944.551, 926.839 942.617 L 929.500 939.959 930.090 904.729 C 930.626 872.802, 930.874 868.917, 932.739 863.282 C 939.071 844.154, 951.698 834, 969.156 834 C 981.031 834, 987.764 837.740, 991.687 846.514 C 993.280 850.079, 993.523 855.152, 993.984 894.500 C 994.368 927.207, 994.823 939.064, 995.758 940.699 C 999.153 946.634, 1008.462 948.006, 1013.958 943.382 L 1017.070 940.763 1016.785 890.632 L 1016.500 840.500 1013.195 833.743 C 1009.031 825.227, 1002.507 818.753, 994.075 814.768 C 987.827 811.815, 986.804 811.647, 973.500 811.385 C 965.800 811.234, 957.925 811.456, 956 811.880 M 1602.135 812.125 C 1589.293 814.259, 1569.265 827.759, 1567.052 835.774 C 1565.055 843.008, 1568.700 849.546, 1575 850.029 C 1580.527 850.454, 1582.123 849.780, 1588.186 844.466 C 1597.193 836.572, 1602.141 834.064, 1610.970 832.918 C 1633.477 829.996, 1646.431 837.839, 1646.481 854.417 C 1646.491 857.943, 1646.126 861.205, 1645.668 861.664 C 1645.210 862.124, 1638.460 862.635, 1630.668 862.800 C 1606.534 863.312, 1587.149 867.811, 1575.359 875.638 C 1569.101 879.791, 1564.973 884.711, 1561.517 892.134 C 1559.356 896.778, 1559.018 898.913, 1559.011 908 C 1559.002 917.564, 1559.265 919.057, 1561.955 924.743 C 1565.577 932.398, 1572.520 939.343, 1579.942 942.734 C 1584.854 944.978, 1587.195 945.330, 1600.082 945.756 C 1609.119 946.055, 1616.687 945.804, 1619.986 945.096 C 1626.379 943.725, 1636.766 938.909, 1640.983 935.361 C 1644.505 932.397, 1646.441 933.178, 1647.498 937.990 C 1647.842 939.559, 1649.200 942.003, 1650.514 943.421 C 1652.572 945.642, 1653.739 946, 1658.912 946 C 1664.175 946, 1665.238 945.659, 1667.491 943.250 C 1668.905 941.737, 1670.295 939.595, 1670.580 938.488 C 1670.864 937.382, 1670.939 916.232, 1670.747 891.488 C 1670.411 848.363, 1670.306 846.231, 1668.209 840 C 1663.395 825.693, 1650.468 815.036, 1634.299 812.048 C 1627.625 810.814, 1609.768 810.857, 1602.135 812.125 M 2065 812 C 2058.415 813.118, 2047.784 818.473, 2043.075 823.043 C 2040.818 825.233, 2037.520 829.794, 2035.747 833.177 C 2032.737 838.918, 2032.522 840.001, 2032.511 849.414 C 2032.502 858.098, 2032.839 860.189, 2034.939 864.457 C 2041.667 878.128, 2051.208 883.283, 2081.425 889.573 C 2101.070 893.663, 2107.551 898.333, 2107.446 908.326 C 2107.351 917.318, 2102.092 923.076, 2091.803 925.453 C 2078.044 928.631, 2066.616 926.624, 2052.686 918.582 C 2041.029 911.852, 2038.019 911.509, 2032.776 916.311 C 2025.800 922.701, 2027.090 931.239, 2036 937.636 C 2038.475 939.413, 2040.920 940.897, 2041.434 940.934 C 2041.948 940.970, 2044.198 941.863, 2046.434 942.917 C 2060.638 949.613, 2087.536 951.430, 2102.186 946.682 C 2116.016 942.201, 2126.386 933.014, 2129.574 922.420 C 2133.128 910.613, 2131.900 895.507, 2126.758 887.762 C 2123.619 883.034, 2116.680 877.578, 2109.361 874.081 C 2103.189 871.133, 2100.732 870.452, 2085.500 867.466 C 2065.509 863.547, 2059.845 860.583, 2057.544 852.837 C 2056.208 848.338, 2056.245 847.593, 2058.011 843.475 C 2059.397 840.242, 2061.255 838.153, 2064.714 835.942 C 2069.463 832.906, 2069.592 832.885, 2081.500 833.191 C 2093.411 833.498, 2093.563 833.532, 2101.990 837.812 C 2106.659 840.184, 2111.320 842.884, 2112.346 843.812 C 2113.610 844.955, 2115.842 845.475, 2119.257 845.424 C 2123.617 845.358, 2124.686 844.916, 2127.150 842.158 C 2129.420 839.617, 2130 838.019, 2130 834.304 C 2130 830.078, 2129.588 829.258, 2125.608 825.570 C 2118.859 819.315, 2106.672 813.626, 2096.500 811.981 C 2089.596 810.865, 2071.615 810.876, 2065 812 M 2250.851 812.010 C 2245.976 813.235, 2239.649 816.552, 2233.192 821.270 C 2228.909 824.400, 2227.606 824.918, 2226.442 823.952 C 2225.649 823.294, 2225 821.769, 2225 820.565 C 2225 819.360, 2223.637 817.069, 2221.972 815.473 C 2219.365 812.976, 2218.162 812.571, 2213.332 812.571 C 2208.166 812.571, 2207.495 812.843, 2204.861 815.998 L 2202 819.424 2202 877.978 C 2202 933.105, 2202.109 936.735, 2203.857 940.016 C 2206.282 944.568, 2209.447 946.187, 2214.872 945.651 C 2218.084 945.333, 2220.073 944.389, 2222.372 942.092 L 2225.500 938.965 2226.072 903.732 C 2226.591 871.687, 2226.829 867.957, 2228.699 862.500 C 2233.158 849.483, 2240.203 841.136, 2250.733 836.391 C 2255.407 834.286, 2258.031 833.793, 2264.574 833.791 C 2279.321 833.785, 2286.652 839.867, 2288.935 854 C 2289.538 857.731, 2289.988 877.062, 2289.992 899.382 C 2290 936.893, 2290.073 938.382, 2292.061 941.598 C 2293.535 943.984, 2295.115 945.119, 2297.616 945.588 C 2303.197 946.635, 2308.108 945.389, 2310.650 942.283 L 2312.928 939.500 2312.964 892.802 L 2313 846.103 2310.448 838.024 C 2308.248 831.060, 2307.100 829.132, 2302.139 824.061 C 2298.319 820.157, 2294.048 817.065, 2289.441 814.870 C 2282.721 811.667, 2282.054 811.554, 2268.500 811.328 C 2260.800 811.199, 2252.858 811.506, 2250.851 812.010 M 2502 812.029 C 2489.374 814.254, 2477.760 822.700, 2472.475 833.500 C 2467.534 843.595, 2467.219 853.747, 2471.538 863.625 C 2477.266 876.723, 2489.547 884.102, 2513 888.537 C 2527.873 891.349, 2529.814 891.872, 2534.860 894.429 C 2541.907 898, 2544 901.047, 2544 907.734 C 2544 917.514, 2539.231 923.266, 2529.157 925.637 C 2517.808 928.308, 2503.361 926.432, 2493.833 921.050 C 2477.799 911.992, 2476.802 911.723, 2471.472 915.018 C 2462.209 920.742, 2463.006 931.116, 2473.214 937.690 C 2490.842 949.043, 2518.850 952.871, 2539.500 946.748 C 2551.902 943.071, 2560.152 936.137, 2565.377 925 C 2568.092 919.212, 2568.430 917.459, 2568.463 909 C 2568.513 896.244, 2566.385 890.387, 2559.005 882.961 C 2555.807 879.743, 2550.985 876.232, 2547.500 874.584 C 2540.992 871.506, 2526.720 867.556, 2517.976 866.413 C 2511.731 865.597, 2502.745 862.718, 2499.210 860.402 C 2495.634 858.059, 2492.753 850.832, 2493.599 846.324 C 2494.497 841.540, 2501.739 834.327, 2506.553 833.424 C 2508.446 833.069, 2514.833 832.980, 2520.747 833.226 C 2531.108 833.657, 2531.792 833.829, 2539.500 837.940 C 2543.900 840.287, 2548.335 842.948, 2549.355 843.854 C 2552.072 846.266, 2560.167 846.056, 2563.032 843.500 C 2566.104 840.759, 2567.735 836.554, 2567.184 832.798 C 2566.042 825.019, 2548.352 814.200, 2533.190 812.007 C 2525.377 810.877, 2508.465 810.889, 2502 812.029 M 2618.266 812.106 C 2615.387 812.586, 2611.344 813.884, 2609.281 814.989 C 2607.218 816.095, 2604.964 817, 2604.273 817 C 2601.887 817, 2590.322 829.447, 2588.013 834.500 C 2584.570 842.034, 2584.096 854.717, 2586.985 861.999 C 2592.401 875.650, 2604.171 883.670, 2624.346 887.457 C 2645.550 891.438, 2652.626 893.861, 2657.132 898.688 C 2664.535 906.617, 2659.572 921.648, 2648.453 924.977 C 2641.500 927.059, 2630.979 927.349, 2622.965 925.681 C 2617.732 924.591, 2612.511 922.467, 2605.500 918.574 C 2600 915.520, 2594.555 913.017, 2593.400 913.011 C 2590.903 912.998, 2583.543 918.116, 2582.052 920.903 C 2575.873 932.449, 2595.536 945.656, 2624 949.076 C 2640.212 951.024, 2657.514 948.119, 2667.594 941.756 C 2673.159 938.243, 2678.793 931.668, 2681.843 925.125 C 2684.169 920.137, 2684.468 918.254, 2684.483 908.500 C 2684.504 894.285, 2682.554 889.517, 2673.215 880.960 C 2669.638 877.682, 2666.301 875, 2665.801 875 C 2665.300 875, 2662.881 874.085, 2660.426 872.966 C 2655.833 870.874, 2653.572 870.300, 2639 867.526 C 2617.578 863.447, 2610 858.666, 2610 849.229 C 2610 843.099, 2613.196 838.255, 2619.232 835.241 C 2623.048 833.335, 2625.334 833, 2634.513 833 C 2643.933 833, 2646.019 833.323, 2650.904 835.538 C 2653.982 836.934, 2657.175 838.490, 2658 838.995 C 2658.825 839.501, 2661.525 841.166, 2664 842.697 C 2670.393 846.650, 2677.174 846.539, 2680.537 842.425 C 2688.682 832.463, 2682.528 824.245, 2659.690 814.586 C 2651.899 811.292, 2630.749 810.025, 2618.266 812.106 M 1287.301 813.902 C 1285.093 815.287, 1283.766 817.154, 1283.019 819.928 C 1282.286 822.650, 1282.028 842.423, 1282.219 881.223 C 1282.478 934.022, 1282.638 938.703, 1284.264 941.096 C 1288.682 947.597, 1300.540 947.465, 1304.067 940.875 C 1304.827 939.455, 1305.261 927.514, 1305.403 904.136 C 1305.602 871.402, 1305.734 869.153, 1307.802 863.177 C 1313.542 846.590, 1323.753 838.231, 1339.472 837.250 C 1346.480 836.813, 1347.990 836.372, 1350.955 833.896 C 1354.006 831.349, 1354.415 830.408, 1354.803 825.042 C 1355.221 819.264, 1355.105 818.905, 1351.719 815.519 C 1348.269 812.069, 1348.040 812, 1340.045 812 C 1333.188 812, 1330.750 812.485, 1324.722 815.050 C 1320.780 816.728, 1315.200 819.917, 1312.322 822.137 C 1309.445 824.357, 1306.637 825.894, 1306.084 825.552 C 1305.530 825.210, 1304.793 823.415, 1304.446 821.563 C 1303.025 813.989, 1293.760 809.850, 1287.301 813.902 M 1902.500 812.945 C 1901.400 813.396, 1899.600 814.765, 1898.500 815.989 C 1896.559 818.148, 1896.500 819.622, 1896.500 865.857 L 1896.500 913.500 1899 920.304 C 1904.139 934.291, 1914.187 943.046, 1929.511 946.889 C 1939.621 949.425, 1944.776 949.526, 1954.303 947.375 C 1962.352 945.558, 1968.754 942.610, 1976.084 937.344 C 1981.636 933.356, 1983.507 933.481, 1984.479 937.905 C 1985.476 942.444, 1990.255 946.003, 1995.327 945.985 C 2000.810 945.966, 2003.874 944.275, 2006.143 940.016 C 2007.891 936.737, 2008 933.139, 2007.993 879.016 C 2007.987 824.744, 2007.883 821.342, 2006.137 818.695 C 2001.347 811.430, 1993.977 810.352, 1987 815.896 L 1984.500 817.882 1983.855 853.691 C 1983.233 888.189, 1983.122 889.738, 1980.810 896 C 1979.490 899.575, 1977.531 904.075, 1976.455 906 C 1973.500 911.290, 1965.727 918.592, 1959.794 921.652 C 1955.157 924.044, 1953.321 924.390, 1945 924.441 C 1936.713 924.492, 1934.960 924.190, 1931.268 922.076 C 1925.783 918.934, 1922.103 913.267, 1920.941 906.173 C 1920.430 903.053, 1920.006 882.500, 1919.999 860.500 C 1919.987 822.650, 1919.883 820.342, 1918.054 817.567 C 1916.990 815.955, 1915.081 814.058, 1913.810 813.353 C 1911.215 811.913, 1905.524 811.708, 1902.500 812.945 M 1518.659 815.054 C 1517.223 816.183, 1515.564 818.771, 1514.971 820.804 C 1514.242 823.308, 1513.992 842.882, 1514.197 881.500 L 1514.500 938.500 1516.929 941.738 C 1518.484 943.810, 1520.555 945.201, 1522.679 945.600 C 1528.155 946.627, 1532.394 945.306, 1535.071 941.738 L 1537.500 938.500 1537.773 879.311 L 1538.046 820.122 1534.919 816.561 C 1532.080 813.327, 1531.310 813, 1526.531 813 C 1522.738 813, 1520.541 813.573, 1518.659 815.054 M 2156.880 814.007 C 2155.989 814.528, 2154.513 816.094, 2153.600 817.487 C 2152.099 819.778, 2151.944 825.695, 2151.984 879.165 C 2152.027 936.972, 2152.075 938.385, 2154.075 941.621 C 2157.735 947.543, 2167.962 947.539, 2172.481 941.614 L 2175 938.311 2175 878.759 L 2175 819.207 2171.465 816.104 C 2168.562 813.555, 2167.088 813.005, 2163.215 813.030 C 2160.622 813.047, 2157.771 813.487, 2156.880 814.007 M 2385.500 832.883 C 2375.966 834.684, 2367.282 842.093, 2362.225 852.742 C 2358.924 859.693, 2358.845 860.115, 2360.410 862.504 L 2362.046 865 2393.966 865 C 2425.451 865, 2425.907 864.971, 2427.386 862.860 C 2428.729 860.942, 2428.700 860.233, 2427.108 856.042 C 2423.268 845.936, 2417.817 839.469, 2409.495 835.150 C 2405.019 832.826, 2392.209 831.616, 2385.500 832.883 M 1419.411 835.290 C 1408.804 839.896, 1403.179 846.310, 1399.057 858.500 C 1397.025 864.507, 1396.699 867.344, 1396.761 878.500 C 1396.823 889.624, 1397.190 892.523, 1399.302 898.588 C 1403.299 910.065, 1408.467 916.718, 1417.500 922.019 C 1420.794 923.951, 1423.295 924.441, 1431.669 924.793 C 1440.870 925.180, 1442.345 924.987, 1447.169 922.763 C 1459.129 917.249, 1466.020 906.580, 1468.665 889.477 C 1470.185 879.654, 1470.177 878.286, 1468.540 868.239 C 1467.578 862.333, 1465.732 855.250, 1464.438 852.500 C 1461.320 845.874, 1454.667 838.818, 1448.508 835.604 C 1444.127 833.319, 1442.352 833.005, 1434.008 833.040 C 1426.463 833.072, 1423.449 833.537, 1419.411 835.290 M 1800.257 835.899 C 1791.672 840.037, 1786.184 845.972, 1782.514 855.085 C 1779.629 862.249, 1779.529 863.041, 1779.546 878.500 C 1779.562 892.869, 1779.790 894.997, 1781.782 899.377 C 1783.002 902.060, 1784 904.666, 1784 905.170 C 1784 906.380, 1791.217 916.068, 1793.617 918.078 C 1800.007 923.433, 1805.454 925.128, 1816.195 925.105 C 1830.625 925.073, 1839.803 918.886, 1847.121 904.256 L 1850.500 897.500 1850.468 879 L 1850.436 860.500 1847.304 853.848 C 1843.549 845.874, 1838.501 840.045, 1832.171 836.374 C 1828.079 834, 1826.199 833.617, 1817 833.277 C 1806.985 832.907, 1806.212 833.028, 1800.257 835.899 M 1616 884.011 C 1600.122 886.174, 1591.012 889.885, 1586.470 896.041 C 1584.402 898.843, 1584 900.519, 1584 906.326 C 1584 919.391, 1589.552 924, 1605.288 924 C 1613.030 924, 1615.748 923.556, 1620.953 921.441 C 1628.917 918.205, 1631.456 916.628, 1636.834 911.573 C 1642.458 906.288, 1645.875 899.487, 1646.655 892.025 C 1647.573 883.244, 1647.160 882.973, 1633.128 883.131 C 1626.732 883.203, 1619.025 883.599, 1616 884.011 M 2709.261 912.656 C 2705.377 913.489, 2698.260 921.504, 2697.521 925.877 C 2695.562 937.473, 2705.933 947.829, 2717.250 945.576 C 2721.241 944.781, 2724.928 941.718, 2727.951 936.686 C 2732.143 929.708, 2729.154 919.423, 2721.472 914.389 C 2718.916 912.715, 2712.944 911.867, 2709.261 912.656" stroke="none" fill="#ffffff" fill-rule="evenodd" id="svg_1" class="" fill-opacity="1" opacity="0"/><path d="M 415.823 73.750 C 413.633 78.604, 408.900 89.390, 396.841 117 C 395.760 119.475, 394.261 122.850, 393.510 124.500 C 392.758 126.150, 388.918 134.925, 384.975 144 C 381.032 153.075, 376.950 162.412, 375.903 164.750 C 374.856 167.088, 373.072 171.137, 371.938 173.750 C 370.804 176.363, 369.260 179.850, 368.508 181.500 C 367.756 183.150, 364.830 189.900, 362.006 196.500 C 359.182 203.100, 356.477 209.400, 355.995 210.500 C 355.512 211.600, 353.701 215.875, 351.969 220 C 348.723 227.732, 345.889 234.269, 343.514 239.500 C 342.765 241.150, 340.955 245.425, 339.491 249 C 338.028 252.575, 336.005 257.300, 334.996 259.500 C 333.986 261.700, 331.073 268.450, 328.522 274.500 C 325.971 280.550, 323.293 286.625, 322.571 288 C 321.849 289.375, 320.691 292.300, 319.999 294.500 C 319.306 296.700, 318.410 298.950, 318.008 299.500 C 317.605 300.050, 316.968 301.850, 316.591 303.500 C 316.215 305.150, 315.071 308.750, 314.050 311.500 C 304.390 337.519, 301.849 367.162, 307.278 390.500 C 308.686 396.550, 310.637 403.742, 311.614 406.481 C 314.846 415.549, 325.276 434, 327.168 434 C 327.626 434, 328 434.528, 328 435.172 C 328 435.817, 330.345 439.080, 333.212 442.422 C 347.938 459.594, 362.448 469.951, 380.500 476.175 C 390.775 479.717, 408.837 482.931, 418.669 482.967 C 428.432 483.002, 447.693 479.625, 458.400 476.001 C 478.446 469.215, 494.170 457.508, 510.108 437.500 C 514.718 431.712, 524 416.946, 524 415.400 C 524 415.168, 524.887 413.071, 525.970 410.739 C 533.909 393.658, 536.759 368.707, 533.550 344.381 C 530.864 324.014, 524.619 305.058, 508.551 268.500 C 505.409 261.350, 502.246 254.150, 501.522 252.500 C 500.798 250.850, 498.118 244.550, 495.566 238.500 C 493.014 232.450, 490.297 226.150, 489.528 224.500 C 488.759 222.850, 486.716 218.125, 484.989 214 C 483.261 209.875, 481.255 205.150, 480.531 203.500 C 479.807 201.850, 476.194 193.525, 472.503 185 C 463.299 163.745, 462.079 160.947, 460.511 157.500 C 459.760 155.850, 455.045 145.050, 450.034 133.500 C 445.022 121.950, 440.297 111.150, 439.533 109.500 C 434.508 98.648, 424 74.029, 424 73.110 C 424 71.840, 420.399 68, 419.208 68 C 418.773 68, 417.249 70.588, 415.823 73.750 M 660.696 112.250 C 658.839 114.138, 658.116 117.152, 656.198 131 C 654.941 140.075, 653.017 153.575, 651.921 161 C 650.826 168.425, 644.108 215.675, 636.993 266 C 629.877 316.325, 623.382 362, 622.558 367.500 C 620.693 379.953, 618.335 396.425, 616.545 409.500 C 614.042 427.790, 609.797 457.280, 606.470 479.500 C 605.647 485, 604.308 494.450, 603.496 500.500 C 602.683 506.550, 601.369 515.990, 600.576 521.478 C 599.544 528.623, 599.439 531.824, 600.207 532.749 C 601.772 534.635, 730.692 534.117, 731.864 532.221 C 732.298 531.518, 733.892 521.843, 735.406 510.721 C 736.921 499.600, 738.788 486.450, 739.556 481.500 C 740.325 476.550, 742.321 462.600, 743.993 450.500 C 745.665 438.400, 747.488 425.575, 748.044 422 C 751.365 400.671, 760 337.664, 760 334.765 C 760 331.070, 763.328 326.870, 764.905 328.574 C 765.377 329.083, 769.173 338.050, 773.341 348.500 C 786.671 381.922, 801.481 418.336, 807.504 432.500 C 808.206 434.150, 810.928 440.900, 813.555 447.500 C 816.181 454.100, 822.250 469.175, 827.042 481 C 831.833 492.825, 838.304 508.800, 841.422 516.500 C 844.540 524.200, 848.020 531.288, 849.156 532.250 C 851.076 533.877, 855.712 534, 915 534 C 974.312 534, 978.919 533.877, 980.780 532.250 C 982.376 530.854, 983.105 527.969, 984.382 518 C 985.263 511.125, 986.891 499.200, 988 491.500 C 989.109 483.800, 990.889 471.200, 991.955 463.500 C 994.435 445.597, 996.550 430.839, 998.977 414.500 C 1000.040 407.350, 1001.800 395.200, 1002.889 387.500 C 1007.078 357.873, 1009.202 343.019, 1011.109 330 C 1012.196 322.575, 1013.279 314.925, 1013.515 313 C 1013.751 311.075, 1014.835 303.425, 1015.924 296 C 1017.013 288.575, 1018.851 275.750, 1020.009 267.500 C 1021.168 259.250, 1022.960 246.650, 1023.993 239.500 C 1025.025 232.350, 1026.833 219.750, 1028.011 211.500 C 1029.189 203.250, 1030.989 190.650, 1032.011 183.500 C 1033.033 176.350, 1034.824 163.750, 1035.992 155.500 C 1037.160 147.250, 1039.066 134.469, 1040.228 127.097 L 1042.340 113.694 1040.059 111.847 C 1037.896 110.095, 1034.565 110, 975.344 110 L 912.909 110 910.662 112.250 C 908.834 114.080, 908.081 116.836, 906.628 127 C 905.646 133.875, 903.958 145.575, 902.878 153 C 901.798 160.425, 900.724 168.075, 900.493 170 C 900.262 171.925, 899.373 178.225, 898.519 184 C 897.665 189.775, 894.487 212.050, 891.456 233.500 C 888.426 254.950, 885.535 275.200, 885.033 278.500 C 884.530 281.800, 883.164 291.475, 881.998 300 C 878.996 321.932, 878.672 323.500, 877.142 323.500 C 875.613 323.500, 873.129 319.061, 870.148 311 C 869.029 307.975, 864.648 296.500, 860.411 285.500 C 846.550 249.509, 844.310 243.653, 839.565 231 C 836.986 224.125, 834.193 216.946, 833.358 215.048 C 832.523 213.149, 828.206 202.124, 823.765 190.548 C 819.323 178.971, 814.472 166.350, 812.984 162.500 C 811.496 158.650, 807.766 148.975, 804.696 141 C 794.878 115.502, 794.004 113.532, 791.732 111.772 C 789.672 110.177, 784.627 110.043, 726.205 110.022 L 662.909 110 660.696 112.250 M 1087.338 110.999 C 1084.754 112.040, 1084.427 113.012, 1082.970 123.972 C 1082.351 128.631, 1081.699 132.681, 1081.523 132.972 C 1081.346 133.262, 1080.702 137.775, 1080.091 143 C 1079.480 148.225, 1078.308 156.775, 1077.485 162 C 1075.560 174.227, 1073.167 190.846, 1071.511 203.500 C 1069.932 215.565, 1067.543 232.114, 1065.519 245 C 1064.699 250.225, 1063.546 258.550, 1062.958 263.500 C 1062.370 268.450, 1061.509 274.300, 1061.044 276.500 C 1060.580 278.700, 1059.916 283.200, 1059.569 286.500 C 1059.221 289.800, 1058.031 298.800, 1056.924 306.500 C 1055.816 314.200, 1054.038 326.575, 1052.973 334 C 1051.908 341.425, 1050.137 353.575, 1049.037 361 C 1047.938 368.425, 1046.555 378.550, 1045.963 383.500 C 1045.372 388.450, 1044.509 394.300, 1044.044 396.500 C 1043.580 398.700, 1042.921 403.200, 1042.581 406.500 C 1042.241 409.800, 1041.095 418.350, 1040.035 425.500 C 1037.758 440.854, 1034.900 460.732, 1031.983 481.500 C 1030.824 489.750, 1029.033 502.350, 1028.003 509.500 C 1024.601 533.111, 1024.666 531.751, 1026.882 532.937 C 1028.255 533.671, 1067.533 534, 1153.934 534 C 1277.667 534, 1279.021 533.979, 1281 532 C 1282.100 530.900, 1283 529.420, 1283 528.712 C 1283 526.008, 1285.935 503.914, 1286.392 503.174 C 1286.657 502.746, 1287.385 497.470, 1288.010 491.448 C 1288.635 485.427, 1289.548 478.925, 1290.039 477 C 1290.530 475.075, 1291.634 467.476, 1292.492 460.113 C 1293.349 452.750, 1294.291 446.338, 1294.584 445.864 C 1295.569 444.271, 1297.582 423.466, 1296.993 420.969 L 1296.410 418.500 1240.168 418 C 1179.675 417.462, 1181.253 417.614, 1182.457 412.459 C 1182.719 411.337, 1183.403 406.162, 1183.976 400.959 C 1185.591 386.319, 1186.856 381.214, 1189.292 379.508 C 1191.141 378.213, 1198.511 378, 1241.568 378 C 1290.172 378, 1291.744 377.940, 1293.474 376.029 C 1294.771 374.595, 1295.614 370.806, 1296.566 362.117 C 1297.287 355.549, 1298.318 348.448, 1298.859 346.337 C 1299.399 344.227, 1300.128 339.125, 1300.478 335 C 1300.828 330.875, 1301.749 324.125, 1302.525 320 C 1303.301 315.875, 1304.417 307.937, 1305.006 302.361 C 1305.594 296.785, 1306.512 290.710, 1307.046 288.861 C 1307.579 287.012, 1308.307 281.745, 1308.663 277.155 C 1309.175 270.548, 1309.017 268.624, 1307.905 267.920 C 1307.132 267.431, 1284 267.017, 1256.500 267 C 1229 266.983, 1205.880 266.576, 1205.122 266.096 C 1204.054 265.420, 1203.898 263.677, 1204.429 258.362 C 1205.698 245.661, 1208.232 231.517, 1209.644 229.250 L 1211.046 227 1266.773 226.985 C 1297.423 226.976, 1323.106 226.585, 1323.847 226.116 C 1325.512 225.061, 1328.400 210.996, 1329.941 196.435 C 1330.578 190.421, 1331.524 183.887, 1332.043 181.916 C 1332.563 179.945, 1333.461 173.645, 1334.040 167.916 C 1334.619 162.187, 1335.519 155.887, 1336.040 153.916 C 1336.561 151.945, 1337.450 145.645, 1338.014 139.916 C 1338.579 134.187, 1339.707 126.486, 1340.521 122.803 C 1342.390 114.341, 1342.392 114.392, 1340 112 C 1338.021 110.021, 1336.710 110.001, 1213.750 110.063 C 1145.412 110.098, 1088.527 110.519, 1087.338 110.999 M 1379.511 112.250 C 1377.193 114.255, 1376.805 115.590, 1375.946 124.500 C 1375.415 130, 1374.333 137.650, 1373.540 141.500 C 1372.747 145.350, 1371.809 152.100, 1371.455 156.500 C 1371.102 160.900, 1370.201 167.425, 1369.453 171 C 1368.706 174.575, 1367.595 182.427, 1366.984 188.448 C 1366.373 194.470, 1365.620 199.805, 1365.312 200.304 C 1364.395 201.787, 1361.988 224.357, 1362.555 226.158 C 1362.842 227.069, 1363.789 228.089, 1364.661 228.423 C 1365.532 228.758, 1381.713 228.546, 1400.617 227.953 C 1419.522 227.360, 1435.442 227.155, 1435.995 227.497 C 1437.746 228.579, 1437.689 229.156, 1432.004 267.500 C 1430.944 274.650, 1429.805 283.200, 1429.472 286.500 C 1429.139 289.800, 1428.247 295.875, 1427.490 300 C 1426.734 304.125, 1425.838 310.425, 1425.500 314 C 1425.162 317.575, 1424.257 323.875, 1423.489 328 C 1422.722 332.125, 1421.821 338.650, 1421.488 342.500 C 1421.156 346.350, 1420.245 352.875, 1419.464 357 C 1418.184 363.767, 1416.527 375.568, 1413.847 397 C 1413.331 401.125, 1412.251 408.198, 1411.447 412.718 C 1410.643 417.239, 1409.517 425.564, 1408.946 431.218 C 1408.375 436.873, 1407.492 443.075, 1406.984 445 C 1406.477 446.925, 1405.582 453, 1404.996 458.500 C 1404.410 464, 1403.301 471.875, 1402.531 476 C 1401.761 480.125, 1400.841 486.650, 1400.486 490.500 C 1400.131 494.350, 1399.396 499.525, 1398.852 502 C 1398.309 504.475, 1397.230 512.125, 1396.456 519 C 1395.161 530.500, 1395.182 531.600, 1396.715 532.750 C 1399.147 534.574, 1531.285 534.574, 1532.779 532.750 C 1533.955 531.314, 1535.159 524.564, 1537.962 503.695 C 1539.055 495.552, 1540.153 488.562, 1540.401 488.160 C 1540.649 487.758, 1541.350 482.721, 1541.958 476.965 C 1542.567 471.209, 1543.699 463.125, 1544.475 459 C 1545.251 454.875, 1546.162 448.575, 1546.500 445 C 1546.838 441.425, 1547.743 435.125, 1548.511 431 C 1549.278 426.875, 1550.195 420.350, 1550.547 416.500 C 1550.899 412.650, 1551.800 406.350, 1552.549 402.500 C 1553.298 398.650, 1554.405 390.775, 1555.009 385 C 1555.613 379.225, 1556.509 372.925, 1557 371 C 1557.491 369.075, 1558.391 362.775, 1559 357 C 1559.609 351.225, 1560.531 344.887, 1561.048 342.916 C 1561.565 340.945, 1562.461 334.645, 1563.040 328.916 C 1563.619 323.187, 1564.508 316.925, 1565.016 315 C 1565.523 313.075, 1566.418 307, 1567.004 301.500 C 1567.590 296, 1568.699 288.125, 1569.469 284 C 1570.239 279.875, 1571.159 273.350, 1571.514 269.500 C 1571.869 265.650, 1572.605 260.475, 1573.150 258 C 1573.694 255.525, 1574.739 248.381, 1575.472 242.126 C 1576.490 233.438, 1577.261 230.295, 1578.736 228.820 C 1580.611 226.944, 1581.645 226.920, 1614.721 227.962 C 1636.889 228.661, 1649.669 228.696, 1651.334 228.063 C 1653.185 227.359, 1654.022 226.180, 1654.360 223.795 C 1654.617 221.983, 1655.291 217.125, 1655.859 213 C 1656.426 208.875, 1657.351 202.350, 1657.914 198.500 C 1660.135 183.309, 1661.032 176.940, 1662.915 162.997 C 1663.992 155.020, 1665.120 147.820, 1665.421 146.997 C 1665.722 146.174, 1666.702 139.650, 1667.599 132.500 C 1668.496 125.350, 1669.450 117.819, 1669.719 115.765 C 1670.154 112.433, 1669.919 111.920, 1667.539 111.015 C 1665.779 110.346, 1616.684 110, 1523.491 110 L 1382.112 110 1379.511 112.250 M 1775.385 113.695 C 1773.523 115.728, 1772 117.799, 1772 118.297 C 1772 119.149, 1757.940 147.761, 1755.930 151 C 1755.418 151.825, 1754.550 153.625, 1754.002 155 C 1753.453 156.375, 1752.553 158.175, 1752.002 159 C 1751.450 159.825, 1750.550 161.625, 1750.002 163 C 1749.453 164.375, 1748.570 166.175, 1748.039 167 C 1747.508 167.825, 1744.560 173.675, 1741.488 180 C 1738.416 186.325, 1735.498 192.175, 1735.003 193 C 1733.739 195.108, 1731.297 200.042, 1730.053 203 C 1729.474 204.375, 1728.585 206.175, 1728.075 207 C 1727.566 207.825, 1701.883 258.900, 1671.002 320.500 C 1640.121 382.100, 1614.475 433.175, 1614.011 434 C 1613.546 434.825, 1604.320 453.275, 1593.509 475 C 1582.697 496.725, 1571.876 518.298, 1569.460 522.939 C 1566.164 529.275, 1565.341 531.705, 1566.157 532.689 C 1567.720 534.572, 1710.477 534.631, 1711.683 532.750 C 1712.123 532.063, 1712.992 530.150, 1713.613 528.500 C 1715.314 523.980, 1720.856 510.216, 1723.477 504 C 1724.753 500.975, 1727.071 495.187, 1728.629 491.138 C 1730.679 485.809, 1732.106 483.530, 1733.796 482.888 C 1735.080 482.399, 1759.415 482, 1787.874 482 C 1829.515 482, 1839.975 482.261, 1841.448 483.338 C 1843.048 484.508, 1843.454 487.500, 1844.674 507.088 C 1845.442 519.415, 1846.287 530.513, 1846.554 531.750 L 1847.038 534 1915.897 534 C 1992.512 534, 1987.983 534.430, 1986.109 527.326 C 1985.553 525.222, 1984.604 518.550, 1983.998 512.500 C 1983.393 506.450, 1982.271 498.125, 1981.506 494 C 1980.740 489.875, 1979.838 483.125, 1979.500 479 C 1979.162 474.875, 1978.258 468.125, 1977.491 464 C 1976.724 459.875, 1975.802 452.900, 1975.444 448.500 C 1975.085 444.100, 1974.203 437.575, 1973.484 434 C 1972.764 430.425, 1971.882 423.900, 1971.524 419.500 C 1971.165 415.100, 1970.236 408.125, 1969.459 404 C 1968.682 399.875, 1967.562 391.581, 1966.971 385.570 C 1966.379 379.558, 1965.696 374.318, 1965.453 373.924 C 1965.210 373.530, 1964.106 365.465, 1963 356 C 1961.894 346.535, 1960.795 338.478, 1960.558 338.094 C 1960.321 337.710, 1959.619 332.470, 1958.998 326.448 C 1958.377 320.427, 1957.245 311.900, 1956.482 307.500 C 1955.718 303.100, 1954.813 296.350, 1954.470 292.500 C 1954.127 288.650, 1953.246 282.125, 1952.512 278 C 1951.778 273.875, 1950.884 266.900, 1950.525 262.500 C 1950.165 258.100, 1949.236 251.125, 1948.460 247 C 1947.684 242.875, 1946.585 234.813, 1946.018 229.084 C 1945.451 223.355, 1944.572 217.055, 1944.064 215.084 C 1943.556 213.113, 1942.846 207.900, 1942.487 203.500 C 1942.128 199.100, 1940.971 190.379, 1939.917 184.120 C 1938.863 177.862, 1937.998 171.337, 1937.996 169.620 C 1937.994 167.904, 1937.129 161.100, 1936.073 154.500 C 1935.018 147.900, 1933.868 139.350, 1933.518 135.500 C 1932.396 123.166, 1930.131 113.657, 1927.861 111.750 C 1925.919 110.118, 1920.818 110, 1852.274 110 L 1778.770 110 1775.385 113.695 M 2079.064 112.432 C 2077.233 114.381, 2076.525 116.912, 2075.497 125.182 C 2074.792 130.857, 2073.463 140.450, 2072.543 146.500 C 2067.797 177.725, 2067.041 183.010, 2066.466 189 C 2066.122 192.575, 2065.441 197.075, 2064.951 199 C 2064.462 200.925, 2063.576 207, 2062.983 212.500 C 2062.390 218, 2061.290 225.650, 2060.538 229.500 C 2059.786 233.350, 2058.872 239.875, 2058.506 244 C 2058.141 248.125, 2057.443 253.075, 2056.955 255 C 2056.467 256.925, 2055.366 264.524, 2054.508 271.887 C 2053.651 279.250, 2052.736 285.617, 2052.477 286.038 C 2052.217 286.458, 2051.353 292.369, 2050.557 299.174 C 2049.761 305.979, 2048.676 313.561, 2048.145 316.023 C 2047.615 318.485, 2046.894 323.425, 2046.545 327 C 2046.196 330.575, 2045.057 339.125, 2044.016 346 C 2042.974 352.875, 2041.159 365.250, 2039.983 373.500 C 2038.807 381.750, 2036.994 394.125, 2035.955 401 C 2034.916 407.875, 2033.796 416.200, 2033.466 419.500 C 2033.136 422.800, 2032.242 428.875, 2031.480 433 C 2030.717 437.125, 2029.800 443.650, 2029.441 447.500 C 2029.083 451.350, 2028.201 457.425, 2027.481 461 C 2026.762 464.575, 2025.880 470.650, 2025.521 474.500 C 2025.163 478.350, 2024.242 484.875, 2023.476 489 C 2022.710 493.125, 2021.571 501, 2020.945 506.500 C 2020.319 512, 2019.647 516.761, 2019.450 517.079 C 2019.254 517.398, 2018.606 520.707, 2018.011 524.434 C 2017.203 529.487, 2017.223 531.563, 2018.087 532.604 C 2019.057 533.773, 2030.108 534, 2086.057 534 C 2125.145 534, 2153.892 533.611, 2155.332 533.064 C 2157.386 532.283, 2157.901 531.244, 2158.436 526.814 C 2158.789 523.891, 2159.961 515.425, 2161.041 508 C 2163.948 488.007, 2166.631 469.360, 2169.026 452.500 C 2170.199 444.250, 2171.836 433.225, 2172.665 428 C 2173.495 422.775, 2174.778 413.550, 2175.516 407.500 C 2176.255 401.450, 2177.330 394.475, 2177.905 392 C 2178.480 389.525, 2178.962 386.107, 2178.976 384.405 C 2179.028 377.783, 2177.168 378, 2233.806 378 L 2284.954 378 2286.317 375.750 C 2287.066 374.512, 2288.654 366.750, 2289.844 358.500 C 2295.567 318.833, 2301.971 272.616, 2301.992 270.821 C 2301.996 270.448, 2301.293 269.436, 2300.429 268.571 C 2299.042 267.185, 2292.951 267, 2248.551 267 C 2205.561 267, 2198.068 266.787, 2197.028 265.533 C 2195.832 264.093, 2195.958 262.912, 2200.577 232.350 C 2200.839 230.618, 2201.662 228.695, 2202.407 228.077 C 2203.366 227.281, 2220.111 226.887, 2259.845 226.727 C 2310.343 226.523, 2316.092 226.336, 2317.572 224.857 C 2318.699 223.730, 2319.779 219.020, 2321.012 209.857 C 2323.356 192.436, 2325.699 175.815, 2327.476 164 C 2331.984 134.022, 2334.204 115.949, 2333.650 113.743 C 2333.288 112.301, 2332.063 110.982, 2330.761 110.633 C 2329.517 110.300, 2272.891 110.021, 2204.924 110.014 L 2081.349 110 2079.064 112.432 M 2375.262 112.394 C 2373.760 114.303, 2372.094 123.778, 2367.043 159.144 C 2359.649 210.908, 2357.551 225.654, 2355.540 240 C 2353.332 255.751, 2341.129 341.107, 2339.528 352 C 2338.760 357.225, 2337.172 368.250, 2336 376.500 C 2334.827 384.750, 2333.018 397.350, 2331.979 404.500 C 2328.519 428.314, 2326.952 439.403, 2325.477 450.500 C 2324.673 456.550, 2323.784 462.625, 2323.500 464 C 2323.216 465.375, 2322.328 471.450, 2321.527 477.500 C 2319.776 490.708, 2317.630 505.632, 2315.359 520.397 C 2313.743 530.903, 2313.749 531.344, 2315.533 532.647 C 2318.253 534.637, 2449.727 534.651, 2452.447 532.662 C 2454.205 531.377, 2459.472 497.012, 2476.071 378.500 C 2480.727 345.261, 2482.069 335.791, 2487.974 294.500 C 2491.356 270.850, 2496.791 232.600, 2500.052 209.500 C 2506.108 166.596, 2507.846 154.482, 2510.600 136 C 2511.460 130.225, 2512.411 122.474, 2512.714 118.776 C 2513.254 112.182, 2513.213 112.031, 2510.567 111.026 C 2508.824 110.363, 2484.751 110, 2442.507 110 L 2377.145 110 2375.262 112.394 M 2604.762 111.073 C 2603.807 111.630, 2602.573 112.929, 2602.021 113.960 C 2601.191 115.512, 2587.627 161.372, 2585.002 171.500 C 2584.575 173.150, 2581.451 183.950, 2578.060 195.500 C 2574.669 207.050, 2571.031 219.650, 2569.977 223.500 C 2568.922 227.350, 2563.745 245.350, 2558.473 263.500 C 2553.200 281.650, 2548.064 299.425, 2547.059 303 C 2545.192 309.645, 2526.252 375.257, 2522.812 387 C 2521.764 390.575, 2519.838 397.325, 2518.531 402 C 2517.224 406.675, 2514.587 415.900, 2512.671 422.500 C 2507.639 439.835, 2490.539 498.946, 2485.478 516.500 C 2482.662 526.269, 2481.493 531.849, 2482.126 532.500 C 2482.750 533.141, 2506.421 533.597, 2548.028 533.771 C 2622.590 534.083, 2615.631 535.065, 2618.304 523.856 C 2619.138 520.360, 2620.794 513.900, 2621.983 509.500 C 2623.173 505.100, 2625.239 497.337, 2626.573 492.250 C 2627.908 487.163, 2630.092 478.837, 2631.427 473.750 C 2632.761 468.663, 2634.755 461.125, 2635.857 457 C 2636.959 452.875, 2639.411 443.650, 2641.306 436.500 C 2643.201 429.350, 2646.190 418.100, 2647.947 411.500 C 2649.704 404.900, 2652.010 396.238, 2653.071 392.250 C 2654.132 388.262, 2655.930 381.512, 2657.066 377.250 C 2658.203 372.988, 2661.099 361.842, 2663.503 352.482 C 2668.546 332.843, 2669.629 329.653, 2670.971 330.482 C 2672.508 331.432, 2673.693 337.379, 2675.457 353 C 2676.357 360.975, 2677.947 374.475, 2678.990 383 C 2680.034 391.525, 2681.846 406.600, 2683.018 416.500 C 2684.190 426.400, 2685.822 439.900, 2686.644 446.500 C 2687.465 453.100, 2688.759 463.900, 2689.519 470.500 C 2695.821 525.252, 2696.824 531.835, 2699.047 533.025 C 2700.151 533.616, 2718.181 534, 2744.823 534 C 2795.417 534, 2791.033 534.912, 2795.283 523.500 C 2796.717 519.650, 2799.063 513.350, 2800.497 509.500 C 2801.932 505.650, 2803.508 501.600, 2804 500.500 C 2805.739 496.612, 2810 485.333, 2810 484.617 C 2810 484.217, 2810.821 482.002, 2811.824 479.695 C 2812.827 477.388, 2814.900 472.125, 2816.431 468 C 2817.961 463.875, 2820.038 458.475, 2821.046 456 C 2822.055 453.525, 2824.053 448.350, 2825.488 444.500 C 2828.185 437.260, 2829.934 432.719, 2833 425 C 2833.983 422.525, 2836.903 414.875, 2839.489 408 C 2842.076 401.125, 2845.049 393.575, 2846.096 391.223 C 2847.143 388.871, 2848 386.464, 2848 385.874 C 2848 385.285, 2848.644 383.384, 2849.430 381.651 C 2851.619 376.828, 2856 365.439, 2856 364.573 C 2856 364.149, 2856.644 362.384, 2857.430 360.651 C 2859.701 355.648, 2864 344.425, 2864 343.501 C 2864 343.038, 2865.429 339.559, 2867.176 335.769 C 2869.784 330.111, 2870.525 329.186, 2871.316 330.601 C 2871.921 331.680, 2872.204 369.328, 2872.077 431.527 C 2871.892 522.162, 2872.016 530.873, 2873.509 532.366 C 2874.985 533.842, 2880.971 534, 2935.371 534 C 2980.883 534, 2995.893 533.707, 2996.800 532.800 C 2998.397 531.203, 2998.560 114.915, 2996.965 111.934 C 2995.956 110.050, 2994.113 110, 2925.715 110.004 C 2857.677 110.007, 2855.400 110.068, 2852.277 111.973 C 2850.406 113.113, 2848.773 115.105, 2848.385 116.719 C 2848.017 118.249, 2846.041 123.775, 2843.994 129 C 2841.948 134.225, 2838.143 144.125, 2835.541 151 C 2832.938 157.875, 2829.951 165.425, 2828.904 167.777 C 2827.857 170.129, 2827 172.536, 2827 173.126 C 2827 173.715, 2826.351 175.616, 2825.557 177.349 C 2824.763 179.082, 2822.496 184.775, 2820.518 190 C 2818.540 195.225, 2816.538 200.400, 2816.070 201.500 C 2815.602 202.600, 2813.800 207.325, 2812.064 212 C 2810.328 216.675, 2808.491 221.400, 2807.981 222.500 C 2807.106 224.388, 2806.482 226.056, 2802.559 237 C 2801.672 239.475, 2800.532 242.400, 2800.026 243.500 C 2799.519 244.600, 2797.934 248.650, 2796.503 252.500 C 2795.071 256.350, 2792.158 264, 2790.028 269.500 C 2783.430 286.543, 2781.104 292.697, 2775.971 306.701 C 2775.326 308.462, 2773.728 310.604, 2772.420 311.460 C 2770.171 312.934, 2770.018 312.896, 2769.585 310.759 C 2769.334 309.517, 2768.880 304.677, 2768.576 300.005 C 2768.273 295.333, 2767.356 286.783, 2766.539 281.005 C 2765.123 270.987, 2763.434 256.922, 2760.476 230.500 C 2759.737 223.900, 2758.414 212.650, 2757.536 205.500 C 2755.544 189.276, 2752.521 164.531, 2750.450 147.500 C 2749.580 140.350, 2748.426 130, 2747.884 124.500 C 2747.024 115.761, 2746.583 114.216, 2744.394 112.250 L 2741.888 110 2674.194 110.030 C 2630.378 110.050, 2605.887 110.418, 2604.762 111.073 M 3043.500 110.732 C 3040.602 111.456, 3040.032 112.830, 3040.015 119.143 C 3040.004 123.376, 3040.395 124.938, 3041.582 125.393 C 3042.452 125.727, 3047.579 126, 3052.975 126 C 3060.999 126, 3062.897 126.288, 3063.393 127.582 C 3063.727 128.452, 3064.045 141.839, 3064.100 157.332 C 3064.155 172.824, 3064.511 186.625, 3064.892 188 C 3065.549 190.369, 3066.001 190.513, 3073.542 190.756 C 3077.919 190.896, 3082.175 190.576, 3083 190.043 C 3084.268 189.225, 3084.545 184.396, 3084.793 158.838 C 3084.984 139.087, 3085.460 128.150, 3086.165 127.301 C 3086.909 126.405, 3090.118 126, 3096.467 126 C 3107.799 126, 3109.628 124.754, 3108.490 117.812 C 3107.155 109.676, 3108.494 109.985, 3075.095 110.116 C 3058.818 110.180, 3044.600 110.457, 3043.500 110.732 M 3119.557 112.223 C 3118.217 114.135, 3118 119.513, 3118 150.788 C 3118 173.928, 3118.376 187.834, 3119.035 189.066 C 3119.905 190.691, 3121.172 191, 3126.976 191 C 3131.403 191, 3134.172 190.551, 3134.691 189.750 C 3135.136 189.063, 3135.500 176.935, 3135.500 162.800 C 3135.500 134.903, 3136.291 130.337, 3139.466 139.898 C 3140.394 142.691, 3141.517 145.202, 3141.963 145.477 C 3142.409 145.753, 3143.079 147.607, 3143.452 149.597 C 3143.826 151.588, 3144.945 155.080, 3145.940 157.358 C 3146.935 159.636, 3148.299 163.075, 3148.971 165 C 3149.643 166.925, 3151.297 171.425, 3152.647 175 C 3153.996 178.575, 3155.514 182.800, 3156.020 184.388 C 3157.501 189.039, 3159.893 191, 3164.087 191 C 3168.122 191, 3170.986 188.250, 3172.420 183 C 3172.796 181.625, 3173.919 178.475, 3174.916 176 C 3177.140 170.479, 3178.189 167.562, 3183.107 153.226 C 3187.415 140.670, 3190.929 134.657, 3192.178 137.705 C 3192.582 138.692, 3192.877 150.412, 3192.833 163.749 C 3192.774 181.735, 3193.075 188.385, 3193.999 189.499 C 3194.886 190.567, 3197.227 191, 3202.122 191 L 3209 191 3209 151.117 L 3209 111.233 3206.750 110.630 C 3203.174 109.672, 3187.380 109.905, 3184.613 110.957 C 3181.939 111.974, 3179.567 115.663, 3176.869 123 C 3175.959 125.475, 3174.022 130.650, 3172.564 134.500 C 3171.107 138.350, 3169.272 143.525, 3168.488 146 C 3167.097 150.387, 3163.847 153.642, 3161.998 152.499 C 3161.492 152.186, 3160.785 150.258, 3160.426 148.215 C 3160.068 146.172, 3159.195 143.571, 3158.486 142.435 C 3157.776 141.299, 3156.726 138.824, 3156.152 136.935 C 3154.685 132.106, 3150.634 121.351, 3148.226 115.892 C 3145.778 110.344, 3144.879 110.032, 3131.307 110.014 C 3121.899 110.001, 3120.993 110.171, 3119.557 112.223 M 1825.921 248.750 C 1823.790 254.438, 1815.800 274.617, 1814.537 277.500 C 1813.814 279.150, 1812.887 281.625, 1812.477 283 C 1812.066 284.375, 1811.116 286.388, 1810.365 287.473 C 1809.614 288.557, 1809 290.139, 1809 290.987 C 1809 291.836, 1808.100 294.209, 1807 296.261 C 1805.900 298.314, 1805 300.564, 1805 301.261 C 1805 301.959, 1804.100 304.209, 1803 306.261 C 1801.900 308.314, 1800.996 310.557, 1800.991 311.246 C 1800.986 311.936, 1799.875 314.750, 1798.522 317.500 C 1797.169 320.250, 1796.048 323.064, 1796.031 323.754 C 1796.014 324.443, 1795.100 326.686, 1794 328.739 C 1792.900 330.791, 1792 333.083, 1792 333.831 C 1792 334.579, 1791.331 336.386, 1790.514 337.846 C 1789.696 339.306, 1788.393 342.300, 1787.618 344.500 C 1786.844 346.700, 1785.302 350.750, 1784.193 353.500 C 1778.206 368.350, 1778.100 368.700, 1779.258 369.858 C 1780.060 370.660, 1788.794 371, 1808.593 371 C 1834.520 371, 1836.840 370.859, 1837.459 369.250 C 1838.217 367.280, 1837.463 347.053, 1835.904 327.500 C 1835.334 320.350, 1834.298 299.498, 1833.602 281.163 C 1832.589 254.499, 1832.052 247.646, 1830.918 246.928 C 1828.461 245.373, 1826.984 245.911, 1825.921 248.750 M 182.693 315.787 C 181.804 316.769, 180.350 319.357, 179.462 321.537 C 178.574 323.716, 176.982 327.413, 175.924 329.750 C 174.866 332.087, 173.072 336.137, 171.938 338.750 C 170.804 341.363, 169.263 344.850, 168.514 346.500 C 167.765 348.150, 165.937 352.425, 164.451 356 C 162.965 359.575, 160.840 364.525, 159.729 367 C 158.618 369.475, 156.874 373.413, 155.854 375.750 C 154.834 378.087, 153.166 381.913, 152.146 384.250 C 151.126 386.587, 149.382 390.525, 148.271 393 C 147.160 395.475, 145.032 400.425, 143.542 404 C 142.052 407.575, 139.905 412.525, 138.770 415 C 137.636 417.475, 135.935 421.300, 134.990 423.500 C 134.044 425.700, 132.567 429.075, 131.705 431 C 130.844 432.925, 127.816 439.900, 124.975 446.500 C 122.134 453.100, 118.953 460.413, 117.905 462.750 C 116.857 465.087, 115.072 469.137, 113.938 471.750 C 112.804 474.363, 111.260 477.850, 110.508 479.500 C 109.756 481.150, 106.816 487.900, 103.975 494.500 C 101.134 501.100, 97.953 508.413, 96.905 510.750 C 94.108 516.990, 91.612 522.794, 89.057 529 C 86.750 534.603, 84.870 538.888, 81.109 547.110 C 79.949 549.645, 79 552.035, 79 552.421 C 79 553.105, 74.715 562.922, 73.042 566.071 C 72.583 566.934, 70.977 570.759, 69.474 574.571 C 66.894 581.111, 63.628 588.737, 60.512 595.500 C 59.752 597.150, 57.710 601.875, 55.975 606 C 54.240 610.125, 51.961 615.413, 50.910 617.750 C 49.860 620.087, 48.072 624.138, 46.938 626.750 C 45.804 629.362, 44.252 632.850, 43.489 634.500 C 42.726 636.150, 40.911 640.425, 39.455 644 C 36.691 650.790, 35.871 652.708, 31.597 662.371 C 30.169 665.600, 29 668.662, 29 669.176 C 29 669.689, 28.133 672.013, 27.073 674.340 C 26.013 676.666, 24.826 679.904, 24.435 681.535 C 24.044 683.166, 23.408 684.950, 23.021 685.500 C 22.395 686.392, 20.995 690.741, 13.925 713.771 C 12.866 717.220, 12 721.101, 12 722.395 C 12 723.690, 11.365 726.548, 10.589 728.747 C 9.814 730.946, 8.674 736.965, 8.057 742.122 C 6.779 752.809, 6.247 755, 4.933 755 C 4.387 755, 4 763.256, 4 774.893 C 4 790.961, 4.267 794.889, 5.391 795.320 C 6.301 795.669, 7.036 798.386, 7.514 803.177 C 7.917 807.205, 8.911 812.975, 9.723 816 C 10.535 819.025, 11.785 823.975, 12.500 827 C 15.081 837.913, 24.106 859.317, 30.210 869 C 31.423 870.925, 33.025 873.616, 33.768 874.981 C 39.303 885.132, 57.694 906.371, 73.618 921 C 93.933 939.663, 124.937 952.883, 162.750 959.007 C 166.738 959.652, 170 960.590, 170 961.090 C 170 962.280, 196.709 962.279, 197.445 961.090 C 197.754 960.589, 201.268 959.651, 205.254 959.006 C 233.461 954.438, 258.200 945.866, 278 933.798 C 284.437 929.875, 299.425 917.271, 306.500 909.832 C 336.119 878.688, 350.661 852.107, 359.476 813 C 363.688 794.311, 363.694 756.412, 359.488 735.500 C 356.814 722.212, 350.838 699.946, 347.542 691 C 346.833 689.075, 345.313 684.905, 344.164 681.734 C 338.904 667.216, 334.745 656.812, 330.278 647 C 326.944 639.679, 325.964 637.414, 320.536 624.500 C 317.994 618.450, 315.289 612.150, 314.527 610.500 C 313.764 608.850, 310.830 602.100, 308.006 595.500 C 305.182 588.900, 302.477 582.600, 301.995 581.500 C 301.512 580.400, 299.712 576.125, 297.994 572 C 296.276 567.875, 294.244 563.150, 293.479 561.500 C 292.713 559.850, 290.006 553.550, 287.463 547.500 C 284.920 541.450, 282.014 534.700, 281.004 532.500 C 279.995 530.300, 277.961 525.575, 276.484 522 C 275.007 518.425, 272.944 513.587, 271.899 511.250 C 270.855 508.913, 269.072 504.863, 267.938 502.250 C 266.804 499.637, 265.260 496.150, 264.508 494.500 C 263.756 492.850, 260.816 486.100, 257.975 479.500 C 253.148 468.285, 250.754 462.822, 247.457 455.500 C 242.103 443.612, 241 441.056, 241 440.540 C 241 440.219, 239.200 436.097, 237 431.379 C 234.800 426.661, 233 422.558, 233 422.260 C 233 421.963, 232.051 419.645, 230.891 417.110 C 226.333 407.144, 224.994 404.109, 220.478 393.500 C 215.175 381.041, 212.490 374.847, 210.508 370.500 C 209.756 368.850, 206.816 362.100, 203.975 355.500 C 199.266 344.559, 197.384 340.261, 193.466 331.500 C 192.728 329.850, 191.220 326.475, 190.114 324 C 189.008 321.525, 187.641 318.262, 187.077 316.750 C 185.878 313.540, 184.917 313.329, 182.693 315.787 M 1174 763.659 C 1164.764 765.088, 1154.043 767.406, 1151.500 768.523 C 1149.850 769.248, 1147.375 770.164, 1146 770.558 C 1144.625 770.952, 1142.427 772.113, 1141.115 773.138 C 1139.803 774.162, 1138.364 775, 1137.915 775 C 1134.984 775, 1123.302 784.974, 1116.834 793 C 1097.506 816.981, 1091.900 859.272, 1103.511 893.500 C 1115.287 928.215, 1144.660 949, 1181.940 949 C 1227.106 949, 1259.623 917.345, 1264.154 868.964 C 1267.188 836.568, 1259.596 807.935, 1243.210 789.982 C 1237.023 783.203, 1227.150 775, 1225.178 775 C 1224.678 775, 1223.197 774.199, 1221.885 773.219 C 1218.327 770.562, 1209.090 767.079, 1202.672 765.975 C 1199.552 765.439, 1194.412 764.553, 1191.250 764.006 C 1185.601 763.029, 1178.938 762.895, 1174 763.659 M 807 766.704 C 803.005 768.157, 799.792 773.059, 794.434 785.874 C 791.300 793.368, 787.693 801.975, 786.417 805 C 784.286 810.052, 778.832 823.192, 759.023 871 C 755.034 880.625, 750.530 891.425, 749.012 895 C 736.826 923.705, 732.902 934.269, 733.482 936.806 C 734.796 942.548, 739.521 946, 746.066 946 C 752.714 946, 755.140 942.507, 765.467 918.063 C 770.465 906.234, 775.195 896.431, 776.152 895.919 C 777.103 895.410, 793.687 895, 813.323 895 C 845.651 895, 848.957 895.154, 850.807 896.750 C 851.923 897.712, 856.286 906.825, 860.504 917 C 869.761 939.332, 871.972 943.332, 875.978 944.991 C 884.514 948.526, 894.297 941.322, 892.610 932.744 C 892.086 930.082, 881.549 903.902, 872.992 884 C 871.928 881.525, 866.290 868.025, 860.464 854 C 850.400 829.773, 844.225 815.009, 839.972 805 C 838.920 802.525, 835.569 794.498, 832.525 787.162 C 826.348 772.278, 825.321 770.511, 821.305 767.863 C 818.579 766.065, 810.544 765.414, 807 766.704 M 1379.364 767.170 C 1374.665 769.445, 1374.712 768.504, 1374.940 855.889 C 1375.059 901.203, 1375.551 939.319, 1376.035 940.591 C 1377.115 943.433, 1381.845 946, 1386 946 C 1390.240 946, 1394.892 943.415, 1396.028 940.426 C 1397.517 936.510, 1399.328 936.581, 1407.163 940.861 C 1426.943 951.668, 1453.576 950.499, 1469.941 938.106 C 1481.509 929.345, 1489.604 915.795, 1492.704 900 C 1496.384 881.254, 1495.092 860.691, 1489.311 846 C 1479.253 820.437, 1456.545 807.271, 1428.817 810.926 C 1419.717 812.125, 1415.402 813.714, 1403.015 820.427 C 1399.763 822.190, 1398.324 822.534, 1397.780 821.679 C 1397.368 821.031, 1397.024 809.553, 1397.015 796.173 L 1397 771.846 1394.077 768.923 C 1391.624 766.470, 1390.377 766.011, 1386.327 766.068 C 1383.672 766.105, 1380.539 766.601, 1379.364 767.170 M 1519.500 767.403 C 1515.250 769.278, 1513.267 771.857, 1512.107 777.015 C 1510.727 783.154, 1512.321 789.064, 1516.317 792.625 C 1518.759 794.801, 1520.637 795.481, 1524.968 795.757 C 1531.801 796.193, 1535.994 793.892, 1538.960 788.079 C 1541.591 782.922, 1541.521 778.466, 1538.734 773.604 C 1534.884 766.889, 1526.666 764.239, 1519.500 767.403 M 1761.306 767.498 C 1760.129 768.322, 1758.387 771.039, 1757.433 773.535 C 1755.820 777.759, 1755.748 783.499, 1756.393 856.287 C 1756.774 899.304, 1757.321 935.856, 1757.610 937.513 C 1757.898 939.170, 1758.978 941.645, 1760.010 943.013 C 1761.651 945.189, 1762.654 945.500, 1768.025 945.500 C 1773.641 945.500, 1774.391 945.237, 1776.832 942.414 C 1778.299 940.717, 1779.994 938.474, 1780.599 937.430 C 1781.655 935.606, 1781.830 935.633, 1785.099 938.122 C 1796.628 946.901, 1816.683 950.364, 1833.458 946.474 C 1853.937 941.724, 1869.764 924.219, 1875.023 900.500 C 1876.729 892.808, 1877.302 872.769, 1876.081 863.500 C 1873.811 846.262, 1865.308 830.243, 1853.718 821.367 C 1846.271 815.664, 1840.549 813.185, 1830.561 811.333 C 1822.939 809.921, 1820.160 809.848, 1811.699 810.841 C 1801.034 812.092, 1795.717 814.002, 1787.247 819.624 C 1784.286 821.589, 1781.557 822.892, 1781.182 822.518 C 1780.807 822.144, 1780.275 810.587, 1780 796.835 L 1779.500 771.832 1776.234 768.916 C 1773.596 766.560, 1772.054 766, 1768.207 766 C 1765.588 766, 1762.482 766.674, 1761.306 767.498 M 2156.500 767.347 C 2148.778 770.898, 2146.213 780.404, 2150.616 789.153 C 2152.933 793.758, 2158.295 796.306, 2164.568 795.786 C 2182.624 794.289, 2182.222 767.723, 2164.122 766.325 C 2161.536 766.125, 2158.179 766.575, 2156.500 767.347 M 1166.500 787.951 C 1162.434 789.123, 1155.376 792.092, 1150.372 794.736 C 1145.676 797.216, 1135.735 807.710, 1132.951 813.125 C 1122.381 833.683, 1120.642 864.151, 1128.679 887.950 C 1134.324 904.667, 1144.978 915.749, 1161.617 922.214 C 1166.778 924.220, 1169.279 924.500, 1182 924.500 C 1195.092 924.500, 1197.083 924.262, 1202.500 922.048 C 1209.586 919.153, 1219.706 912.326, 1223.374 907.967 C 1228.266 902.153, 1232.763 893.301, 1235.603 883.896 C 1238.287 875.003, 1238.439 873.483, 1238.446 855.500 C 1238.451 838.488, 1238.211 835.715, 1236.147 829 C 1230.291 809.942, 1221.805 799.059, 1207.220 791.901 L 1198.500 787.622 1184 787.354 C 1176.025 787.206, 1168.150 787.475, 1166.500 787.951 M 810.096 807.182 C 809.589 808.457, 806.463 816.475, 803.149 825 C 799.836 833.525, 794.590 846.977, 791.492 854.894 C 786.597 867.401, 786.047 869.476, 787.294 870.723 C 789.492 872.921, 836.610 872.819, 838.817 870.611 C 840.194 869.235, 839.571 867.116, 832.698 849.790 C 828.490 839.180, 822.865 824.875, 820.199 818 C 816.246 807.805, 814.953 805.441, 813.186 805.182 C 811.680 804.960, 810.738 805.570, 810.096 807.182 M 2378.901 811.486 C 2364.280 814.687, 2349.347 825.659, 2341.903 838.669 C 2329.148 860.963, 2329.347 896.491, 2342.360 920 C 2359.901 951.690, 2410.050 957.816, 2436.612 931.513 C 2443.521 924.672, 2447 918.687, 2447 913.643 C 2447 908.601, 2441.547 904, 2435.571 904 C 2430.816 904, 2429.132 905.235, 2421.500 914.321 C 2416.375 920.422, 2410.342 923.776, 2401.884 925.227 C 2393.087 926.735, 2381.715 925.089, 2375.412 921.396 C 2367.475 916.744, 2361.196 907.224, 2358.531 895.802 C 2357.243 890.283, 2357.247 889.273, 2358.558 887.271 L 2360.046 885 2402.055 885 C 2448.491 885, 2449.568 884.872, 2451.968 879.078 C 2453.506 875.364, 2452.826 864.162, 2450.445 854 C 2448.803 846.996, 2443.665 836.050, 2439.385 830.438 C 2436.111 826.146, 2426.036 818.262, 2420 815.269 C 2410.237 810.428, 2391.579 808.710, 2378.901 811.486 M 956 811.880 C 951.482 812.873, 944.990 816.222, 937.646 821.349 C 932.020 825.276, 931.737 825.361, 930.396 823.527 C 929.628 822.477, 929 820.888, 929 819.996 C 929 819.104, 927.620 817.052, 925.934 815.437 C 923.392 813.002, 922.029 812.500, 917.954 812.500 C 913.736 812.500, 912.575 812.964, 909.769 815.769 L 906.500 819.037 906.197 876.269 C 905.993 914.857, 906.244 934.698, 906.965 937.176 C 907.554 939.198, 909.470 942.059, 911.223 943.534 C 913.974 945.849, 915.076 946.151, 919.294 945.746 C 922.845 945.405, 924.904 944.551, 926.839 942.617 L 929.500 939.959 930.090 904.729 C 930.626 872.802, 930.874 868.917, 932.739 863.282 C 939.071 844.154, 951.698 834, 969.156 834 C 981.031 834, 987.764 837.740, 991.687 846.514 C 993.280 850.079, 993.523 855.152, 993.984 894.500 C 994.368 927.207, 994.823 939.064, 995.758 940.699 C 999.153 946.634, 1008.462 948.006, 1013.958 943.382 L 1017.070 940.763 1016.785 890.632 L 1016.500 840.500 1013.195 833.743 C 1009.031 825.227, 1002.507 818.753, 994.075 814.768 C 987.827 811.815, 986.804 811.647, 973.500 811.385 C 965.800 811.234, 957.925 811.456, 956 811.880 M 1602.135 812.125 C 1589.293 814.259, 1569.265 827.759, 1567.052 835.774 C 1565.055 843.008, 1568.700 849.546, 1575 850.029 C 1580.527 850.454, 1582.123 849.780, 1588.186 844.466 C 1597.193 836.572, 1602.141 834.064, 1610.970 832.918 C 1633.477 829.996, 1646.431 837.839, 1646.481 854.417 C 1646.491 857.943, 1646.126 861.205, 1645.668 861.664 C 1645.210 862.124, 1638.460 862.635, 1630.668 862.800 C 1606.534 863.312, 1587.149 867.811, 1575.359 875.638 C 1569.101 879.791, 1564.973 884.711, 1561.517 892.134 C 1559.356 896.778, 1559.018 898.913, 1559.011 908 C 1559.002 917.564, 1559.265 919.057, 1561.955 924.743 C 1565.577 932.398, 1572.520 939.343, 1579.942 942.734 C 1584.854 944.978, 1587.195 945.330, 1600.082 945.756 C 1609.119 946.055, 1616.687 945.804, 1619.986 945.096 C 1626.379 943.725, 1636.766 938.909, 1640.983 935.361 C 1644.505 932.397, 1646.441 933.178, 1647.498 937.990 C 1647.842 939.559, 1649.200 942.003, 1650.514 943.421 C 1652.572 945.642, 1653.739 946, 1658.912 946 C 1664.175 946, 1665.238 945.659, 1667.491 943.250 C 1668.905 941.737, 1670.295 939.595, 1670.580 938.488 C 1670.864 937.382, 1670.939 916.232, 1670.747 891.488 C 1670.411 848.363, 1670.306 846.231, 1668.209 840 C 1663.395 825.693, 1650.468 815.036, 1634.299 812.048 C 1627.625 810.814, 1609.768 810.857, 1602.135 812.125 M 2065 812 C 2058.415 813.118, 2047.784 818.473, 2043.075 823.043 C 2040.818 825.233, 2037.520 829.794, 2035.747 833.177 C 2032.737 838.918, 2032.522 840.001, 2032.511 849.414 C 2032.502 858.098, 2032.839 860.189, 2034.939 864.457 C 2041.667 878.128, 2051.208 883.283, 2081.425 889.573 C 2101.070 893.663, 2107.551 898.333, 2107.446 908.326 C 2107.351 917.318, 2102.092 923.076, 2091.803 925.453 C 2078.044 928.631, 2066.616 926.624, 2052.686 918.582 C 2041.029 911.852, 2038.019 911.509, 2032.776 916.311 C 2025.800 922.701, 2027.090 931.239, 2036 937.636 C 2038.475 939.413, 2040.920 940.897, 2041.434 940.934 C 2041.948 940.970, 2044.198 941.863, 2046.434 942.917 C 2060.638 949.613, 2087.536 951.430, 2102.186 946.682 C 2116.016 942.201, 2126.386 933.014, 2129.574 922.420 C 2133.128 910.613, 2131.900 895.507, 2126.758 887.762 C 2123.619 883.034, 2116.680 877.578, 2109.361 874.081 C 2103.189 871.133, 2100.732 870.452, 2085.500 867.466 C 2065.509 863.547, 2059.845 860.583, 2057.544 852.837 C 2056.208 848.338, 2056.245 847.593, 2058.011 843.475 C 2059.397 840.242, 2061.255 838.153, 2064.714 835.942 C 2069.463 832.906, 2069.592 832.885, 2081.500 833.191 C 2093.411 833.498, 2093.563 833.532, 2101.990 837.812 C 2106.659 840.184, 2111.320 842.884, 2112.346 843.812 C 2113.610 844.955, 2115.842 845.475, 2119.257 845.424 C 2123.617 845.358, 2124.686 844.916, 2127.150 842.158 C 2129.420 839.617, 2130 838.019, 2130 834.304 C 2130 830.078, 2129.588 829.258, 2125.608 825.570 C 2118.859 819.315, 2106.672 813.626, 2096.500 811.981 C 2089.596 810.865, 2071.615 810.876, 2065 812 M 2250.851 812.010 C 2245.976 813.235, 2239.649 816.552, 2233.192 821.270 C 2228.909 824.400, 2227.606 824.918, 2226.442 823.952 C 2225.649 823.294, 2225 821.769, 2225 820.565 C 2225 819.360, 2223.637 817.069, 2221.972 815.473 C 2219.365 812.976, 2218.162 812.571, 2213.332 812.571 C 2208.166 812.571, 2207.495 812.843, 2204.861 815.998 L 2202 819.424 2202 877.978 C 2202 933.105, 2202.109 936.735, 2203.857 940.016 C 2206.282 944.568, 2209.447 946.187, 2214.872 945.651 C 2218.084 945.333, 2220.073 944.389, 2222.372 942.092 L 2225.500 938.965 2226.072 903.732 C 2226.591 871.687, 2226.829 867.957, 2228.699 862.500 C 2233.158 849.483, 2240.203 841.136, 2250.733 836.391 C 2255.407 834.286, 2258.031 833.793, 2264.574 833.791 C 2279.321 833.785, 2286.652 839.867, 2288.935 854 C 2289.538 857.731, 2289.988 877.062, 2289.992 899.382 C 2290 936.893, 2290.073 938.382, 2292.061 941.598 C 2293.535 943.984, 2295.115 945.119, 2297.616 945.588 C 2303.197 946.635, 2308.108 945.389, 2310.650 942.283 L 2312.928 939.500 2312.964 892.802 L 2313 846.103 2310.448 838.024 C 2308.248 831.060, 2307.100 829.132, 2302.139 824.061 C 2298.319 820.157, 2294.048 817.065, 2289.441 814.870 C 2282.721 811.667, 2282.054 811.554, 2268.500 811.328 C 2260.800 811.199, 2252.858 811.506, 2250.851 812.010 M 2502 812.029 C 2489.374 814.254, 2477.760 822.700, 2472.475 833.500 C 2467.534 843.595, 2467.219 853.747, 2471.538 863.625 C 2477.266 876.723, 2489.547 884.102, 2513 888.537 C 2527.873 891.349, 2529.814 891.872, 2534.860 894.429 C 2541.907 898, 2544 901.047, 2544 907.734 C 2544 917.514, 2539.231 923.266, 2529.157 925.637 C 2517.808 928.308, 2503.361 926.432, 2493.833 921.050 C 2477.799 911.992, 2476.802 911.723, 2471.472 915.018 C 2462.209 920.742, 2463.006 931.116, 2473.214 937.690 C 2490.842 949.043, 2518.850 952.871, 2539.500 946.748 C 2551.902 943.071, 2560.152 936.137, 2565.377 925 C 2568.092 919.212, 2568.430 917.459, 2568.463 909 C 2568.513 896.244, 2566.385 890.387, 2559.005 882.961 C 2555.807 879.743, 2550.985 876.232, 2547.500 874.584 C 2540.992 871.506, 2526.720 867.556, 2517.976 866.413 C 2511.731 865.597, 2502.745 862.718, 2499.210 860.402 C 2495.634 858.059, 2492.753 850.832, 2493.599 846.324 C 2494.497 841.540, 2501.739 834.327, 2506.553 833.424 C 2508.446 833.069, 2514.833 832.980, 2520.747 833.226 C 2531.108 833.657, 2531.792 833.829, 2539.500 837.940 C 2543.900 840.287, 2548.335 842.948, 2549.355 843.854 C 2552.072 846.266, 2560.167 846.056, 2563.032 843.500 C 2566.104 840.759, 2567.735 836.554, 2567.184 832.798 C 2566.042 825.019, 2548.352 814.200, 2533.190 812.007 C 2525.377 810.877, 2508.465 810.889, 2502 812.029 M 2618.266 812.106 C 2615.387 812.586, 2611.344 813.884, 2609.281 814.989 C 2607.218 816.095, 2604.964 817, 2604.273 817 C 2601.887 817, 2590.322 829.447, 2588.013 834.500 C 2584.570 842.034, 2584.096 854.717, 2586.985 861.999 C 2592.401 875.650, 2604.171 883.670, 2624.346 887.457 C 2645.550 891.438, 2652.626 893.861, 2657.132 898.688 C 2664.535 906.617, 2659.572 921.648, 2648.453 924.977 C 2641.500 927.059, 2630.979 927.349, 2622.965 925.681 C 2617.732 924.591, 2612.511 922.467, 2605.500 918.574 C 2600 915.520, 2594.555 913.017, 2593.400 913.011 C 2590.903 912.998, 2583.543 918.116, 2582.052 920.903 C 2575.873 932.449, 2595.536 945.656, 2624 949.076 C 2640.212 951.024, 2657.514 948.119, 2667.594 941.756 C 2673.159 938.243, 2678.793 931.668, 2681.843 925.125 C 2684.169 920.137, 2684.468 918.254, 2684.483 908.500 C 2684.504 894.285, 2682.554 889.517, 2673.215 880.960 C 2669.638 877.682, 2666.301 875, 2665.801 875 C 2665.300 875, 2662.881 874.085, 2660.426 872.966 C 2655.833 870.874, 2653.572 870.300, 2639 867.526 C 2617.578 863.447, 2610 858.666, 2610 849.229 C 2610 843.099, 2613.196 838.255, 2619.232 835.241 C 2623.048 833.335, 2625.334 833, 2634.513 833 C 2643.933 833, 2646.019 833.323, 2650.904 835.538 C 2653.982 836.934, 2657.175 838.490, 2658 838.995 C 2658.825 839.501, 2661.525 841.166, 2664 842.697 C 2670.393 846.650, 2677.174 846.539, 2680.537 842.425 C 2688.682 832.463, 2682.528 824.245, 2659.690 814.586 C 2651.899 811.292, 2630.749 810.025, 2618.266 812.106 M 1287.301 813.902 C 1285.093 815.287, 1283.766 817.154, 1283.019 819.928 C 1282.286 822.650, 1282.028 842.423, 1282.219 881.223 C 1282.478 934.022, 1282.638 938.703, 1284.264 941.096 C 1288.682 947.597, 1300.540 947.465, 1304.067 940.875 C 1304.827 939.455, 1305.261 927.514, 1305.403 904.136 C 1305.602 871.402, 1305.734 869.153, 1307.802 863.177 C 1313.542 846.590, 1323.753 838.231, 1339.472 837.250 C 1346.480 836.813, 1347.990 836.372, 1350.955 833.896 C 1354.006 831.349, 1354.415 830.408, 1354.803 825.042 C 1355.221 819.264, 1355.105 818.905, 1351.719 815.519 C 1348.269 812.069, 1348.040 812, 1340.045 812 C 1333.188 812, 1330.750 812.485, 1324.722 815.050 C 1320.780 816.728, 1315.200 819.917, 1312.322 822.137 C 1309.445 824.357, 1306.637 825.894, 1306.084 825.552 C 1305.530 825.210, 1304.793 823.415, 1304.446 821.563 C 1303.025 813.989, 1293.760 809.850, 1287.301 813.902 M 1902.500 812.945 C 1901.400 813.396, 1899.600 814.765, 1898.500 815.989 C 1896.559 818.148, 1896.500 819.622, 1896.500 865.857 L 1896.500 913.500 1899 920.304 C 1904.139 934.291, 1914.187 943.046, 1929.511 946.889 C 1939.621 949.425, 1944.776 949.526, 1954.303 947.375 C 1962.352 945.558, 1968.754 942.610, 1976.084 937.344 C 1981.636 933.356, 1983.507 933.481, 1984.479 937.905 C 1985.476 942.444, 1990.255 946.003, 1995.327 945.985 C 2000.810 945.966, 2003.874 944.275, 2006.143 940.016 C 2007.891 936.737, 2008 933.139, 2007.993 879.016 C 2007.987 824.744, 2007.883 821.342, 2006.137 818.695 C 2001.347 811.430, 1993.977 810.352, 1987 815.896 L 1984.500 817.882 1983.855 853.691 C 1983.233 888.189, 1983.122 889.738, 1980.810 896 C 1979.490 899.575, 1977.531 904.075, 1976.455 906 C 1973.500 911.290, 1965.727 918.592, 1959.794 921.652 C 1955.157 924.044, 1953.321 924.390, 1945 924.441 C 1936.713 924.492, 1934.960 924.190, 1931.268 922.076 C 1925.783 918.934, 1922.103 913.267, 1920.941 906.173 C 1920.430 903.053, 1920.006 882.500, 1919.999 860.500 C 1919.987 822.650, 1919.883 820.342, 1918.054 817.567 C 1916.990 815.955, 1915.081 814.058, 1913.810 813.353 C 1911.215 811.913, 1905.524 811.708, 1902.500 812.945 M 1518.659 815.054 C 1517.223 816.183, 1515.564 818.771, 1514.971 820.804 C 1514.242 823.308, 1513.992 842.882, 1514.197 881.500 L 1514.500 938.500 1516.929 941.738 C 1518.484 943.810, 1520.555 945.201, 1522.679 945.600 C 1528.155 946.627, 1532.394 945.306, 1535.071 941.738 L 1537.500 938.500 1537.773 879.311 L 1538.046 820.122 1534.919 816.561 C 1532.080 813.327, 1531.310 813, 1526.531 813 C 1522.738 813, 1520.541 813.573, 1518.659 815.054 M 2156.880 814.007 C 2155.989 814.528, 2154.513 816.094, 2153.600 817.487 C 2152.099 819.778, 2151.944 825.695, 2151.984 879.165 C 2152.027 936.972, 2152.075 938.385, 2154.075 941.621 C 2157.735 947.543, 2167.962 947.539, 2172.481 941.614 L 2175 938.311 2175 878.759 L 2175 819.207 2171.465 816.104 C 2168.562 813.555, 2167.088 813.005, 2163.215 813.030 C 2160.622 813.047, 2157.771 813.487, 2156.880 814.007 M 2385.500 832.883 C 2375.966 834.684, 2367.282 842.093, 2362.225 852.742 C 2358.924 859.693, 2358.845 860.115, 2360.410 862.504 L 2362.046 865 2393.966 865 C 2425.451 865, 2425.907 864.971, 2427.386 862.860 C 2428.729 860.942, 2428.700 860.233, 2427.108 856.042 C 2423.268 845.936, 2417.817 839.469, 2409.495 835.150 C 2405.019 832.826, 2392.209 831.616, 2385.500 832.883 M 1419.411 835.290 C 1408.804 839.896, 1403.179 846.310, 1399.057 858.500 C 1397.025 864.507, 1396.699 867.344, 1396.761 878.500 C 1396.823 889.624, 1397.190 892.523, 1399.302 898.588 C 1403.299 910.065, 1408.467 916.718, 1417.500 922.019 C 1420.794 923.951, 1423.295 924.441, 1431.669 924.793 C 1440.870 925.180, 1442.345 924.987, 1447.169 922.763 C 1459.129 917.249, 1466.020 906.580, 1468.665 889.477 C 1470.185 879.654, 1470.177 878.286, 1468.540 868.239 C 1467.578 862.333, 1465.732 855.250, 1464.438 852.500 C 1461.320 845.874, 1454.667 838.818, 1448.508 835.604 C 1444.127 833.319, 1442.352 833.005, 1434.008 833.040 C 1426.463 833.072, 1423.449 833.537, 1419.411 835.290 M 1800.257 835.899 C 1791.672 840.037, 1786.184 845.972, 1782.514 855.085 C 1779.629 862.249, 1779.529 863.041, 1779.546 878.500 C 1779.562 892.869, 1779.790 894.997, 1781.782 899.377 C 1783.002 902.060, 1784 904.666, 1784 905.170 C 1784 906.380, 1791.217 916.068, 1793.617 918.078 C 1800.007 923.433, 1805.454 925.128, 1816.195 925.105 C 1830.625 925.073, 1839.803 918.886, 1847.121 904.256 L 1850.500 897.500 1850.468 879 L 1850.436 860.500 1847.304 853.848 C 1843.549 845.874, 1838.501 840.045, 1832.171 836.374 C 1828.079 834, 1826.199 833.617, 1817 833.277 C 1806.985 832.907, 1806.212 833.028, 1800.257 835.899 M 1616 884.011 C 1600.122 886.174, 1591.012 889.885, 1586.470 896.041 C 1584.402 898.843, 1584 900.519, 1584 906.326 C 1584 919.391, 1589.552 924, 1605.288 924 C 1613.030 924, 1615.748 923.556, 1620.953 921.441 C 1628.917 918.205, 1631.456 916.628, 1636.834 911.573 C 1642.458 906.288, 1645.875 899.487, 1646.655 892.025 C 1647.573 883.244, 1647.160 882.973, 1633.128 883.131 C 1626.732 883.203, 1619.025 883.599, 1616 884.011 M 2709.261 912.656 C 2705.377 913.489, 2698.260 921.504, 2697.521 925.877 C 2695.562 937.473, 2705.933 947.829, 2717.250 945.576 C 2721.241 944.781, 2724.928 941.718, 2727.951 936.686 C 2732.143 929.708, 2729.154 919.423, 2721.472 914.389 C 2718.916 912.715, 2712.944 911.867, 2709.261 912.656" stroke="none" fill="#383857" fill-rule="evenodd" id="svg_2" class="" opacity="1"/></g></svg>